<svg width="3120" height="756" viewBox="0 0 3120 756" fill="none" xmlns="http://www.w3.org/2000/svg">
<mask id="path-1-outside-1_655_20" maskUnits="userSpaceOnUse" x="384.989" y="117.739" width="388.627" height="355.203" fill="black">
<rect fill="white" x="384.989" y="117.739" width="388.627" height="355.203"/>
<path d="M469.072 326.805C487.449 312.145 499.39 290.209 500.437 265.612L506.245 127.951C506.296 126.739 508.11 126.666 508.243 127.87L523.397 264.871C527.942 305.952 562.604 337.579 604.922 339.299L746.04 344.964C747.28 345.014 747.325 346.787 746.09 346.917L605.681 361.696C582.515 364.14 562.264 375.469 548.456 392.045"/>
</mask>
<path d="M469.072 326.805C487.449 312.145 499.39 290.209 500.437 265.612L506.245 127.951C506.296 126.739 508.11 126.666 508.243 127.87L523.397 264.871C527.942 305.952 562.604 337.579 604.922 339.299L746.04 344.964C747.28 345.014 747.325 346.787 746.09 346.917L605.681 361.696C582.515 364.14 562.264 375.469 548.456 392.045" fill="white"/>
<path d="M500.437 265.612L506.445 265.809L506.445 265.807L500.437 265.612ZM523.397 264.871L517.419 265.55L517.419 265.55L523.397 264.871ZM604.922 339.299L604.623 345.171L604.626 345.171L604.922 339.299ZM605.681 361.696L605.085 355.852L605.084 355.852L605.681 361.696ZM746.04 344.964L745.745 350.837L746.04 344.964ZM746.09 346.917L746.686 352.761L746.09 346.917ZM508.243 127.87L502.264 128.549L508.243 127.87ZM472.852 331.347C492.53 315.648 505.324 292.148 506.445 265.809L494.429 265.416C493.456 288.27 482.368 308.642 465.293 322.264L472.852 331.347ZM506.445 265.807L512.254 128.146L500.237 127.757L494.429 265.418L506.445 265.807ZM502.264 128.549L517.419 265.55L529.376 264.193L514.222 127.192L502.264 128.549ZM517.419 265.55C522.282 309.511 559.361 343.332 604.623 345.171L605.22 333.426C565.847 331.826 533.602 302.393 529.376 264.193L517.419 265.55ZM604.626 345.171L745.745 350.837L746.336 339.092L605.217 333.426L604.626 345.171ZM745.495 341.073L605.085 355.852L606.277 367.539L746.686 352.761L745.495 341.073ZM605.084 355.852C580.289 358.468 558.595 370.601 543.805 388.357L553.107 395.734C565.933 380.337 584.741 369.812 606.278 367.539L605.084 355.852ZM745.745 350.837C739.549 350.588 739.322 341.723 745.495 341.073L746.686 352.761C755.328 351.851 755.011 339.44 746.336 339.092L745.745 350.837ZM512.254 128.146C511.998 134.205 502.93 134.57 502.264 128.549L514.222 127.192C513.289 118.762 500.595 119.274 500.237 127.757L512.254 128.146Z" fill="white" mask="url(#path-1-outside-1_655_20)"/>
<path d="M526.191 578.466L532.036 440.809C533.688 402.058 563.34 370.161 602.349 364.522C606.087 363.981 607.3 358.853 603.617 357.066L537.023 324.753L504.516 266.758C502.512 263.183 497.239 264.67 496.921 268.387C493.642 306.66 462.992 337.533 423.528 341.683L283.098 356.448C278.16 356.967 278.359 364.056 283.318 364.256L424.415 369.942C424.415 369.942 424.415 369.942 424.416 369.942C465.27 371.6 498.698 402.138 503.078 441.776C503.078 441.776 503.078 441.776 503.078 441.776L518.196 578.766C518.728 583.583 525.985 583.31 526.191 578.466Z" fill="white" stroke="white" stroke-width="6"/>
<mask id="path-4-outside-2_655_20" maskUnits="userSpaceOnUse" x="78.6918" y="389.252" width="230.532" height="207.744" fill="black">
<rect fill="white" x="78.6918" y="389.252" width="230.532" height="207.744"/>
<path d="M128.865 511.184C139.841 502.55 146.973 489.633 147.598 475.148L150.84 399.398C150.892 398.193 152.719 398.115 152.853 399.312L161.312 474.712C164.026 498.904 184.729 517.528 210.005 518.541L288.761 521.658C290.009 521.708 290.05 523.471 288.805 523.6L210.458 531.73C196.622 533.17 184.526 539.841 176.279 549.603"/>
</mask>
<path d="M128.865 511.184C139.841 502.55 146.973 489.633 147.598 475.148L150.84 399.398C150.892 398.193 152.719 398.115 152.853 399.312L161.312 474.712C164.026 498.904 184.729 517.528 210.005 518.541L288.761 521.658C290.009 521.708 290.05 523.471 288.805 523.6L210.458 531.73C196.622 533.17 184.526 539.841 176.279 549.603" fill="white"/>
<path d="M147.598 475.148L153.652 475.327L153.652 475.324L147.598 475.148ZM161.312 474.712L155.288 475.404L155.288 475.404L161.312 474.712ZM210.005 518.541L209.686 524.379L209.689 524.379L210.005 518.541ZM210.458 531.73L209.876 525.921L209.874 525.921L210.458 531.73ZM288.761 521.658L289.076 515.82L288.761 521.658ZM288.805 523.6L289.388 529.409L288.805 523.6ZM150.84 399.398L144.786 399.222L150.84 399.398ZM152.853 399.312L146.829 400.004L152.853 399.312ZM132.663 515.695C144.958 506.025 152.952 491.546 153.652 475.327L141.545 474.969C140.994 487.719 134.724 499.076 125.067 506.672L132.663 515.695ZM153.652 475.324L156.894 399.574L144.786 399.222L141.545 474.972L153.652 475.324ZM146.829 400.004L155.288 475.404L167.336 474.02L158.877 398.62L146.829 400.004ZM155.288 475.404C158.323 502.454 181.453 523.248 209.686 524.379L210.323 512.703C188.005 511.809 169.729 495.354 167.336 474.02L155.288 475.404ZM209.689 524.379L288.446 527.497L289.076 515.82L210.32 512.703L209.689 524.379ZM288.223 517.79L209.876 525.921L211.04 537.54L289.388 529.409L288.223 517.79ZM209.874 525.921C194.396 527.531 180.841 535.002 171.599 545.942L180.959 553.263C188.211 544.679 198.847 538.808 211.042 537.54L209.874 525.921ZM288.446 527.497C282.203 527.249 282.002 518.436 288.223 517.79L289.388 529.409C298.098 528.505 297.815 516.166 289.076 515.82L288.446 527.497ZM156.894 399.574C156.636 405.597 147.5 405.988 146.829 400.004L158.877 398.62C157.937 390.243 145.147 390.789 144.786 399.222L156.894 399.574Z" fill="white" mask="url(#path-4-outside-2_655_20)"/>
<path d="M164.448 654.098L167.71 578.351C168.653 556.543 185.264 538.52 207.318 534.775C209.287 534.441 210.43 532.925 210.687 531.496C210.947 530.052 210.376 528.214 208.527 527.329L170.356 509.068L151.834 476.487C150.825 474.713 148.86 474.26 147.372 474.585C145.901 474.907 144.364 476.095 144.136 478.039C141.633 499.377 124.057 516.425 101.551 518.758C101.551 518.758 101.551 518.758 101.551 518.758L23.1869 526.882C18.2096 527.398 18.3892 534.445 23.3852 534.644L102.13 537.773C125.93 538.725 145.403 556.267 147.954 579.028C147.954 579.028 147.954 579.028 147.954 579.028L156.393 654.419C156.928 659.205 164.24 658.914 164.448 654.098Z" fill="white" stroke="white" stroke-width="6"/>
<path d="M959.938 548.8C963.41 548.8 966.266 549.024 968.506 549.472C970.858 549.808 973.21 550.312 975.562 550.984C978.026 551.656 981.05 552.44 984.634 553.336C985.306 557.592 985.81 562.016 986.146 566.608C986.594 571.088 986.874 574.448 986.986 576.688C987.098 577.248 986.706 577.696 985.81 578.032C984.914 578.256 984.186 578.368 983.626 578.368C982.842 578.368 982.226 578.144 981.778 577.696C981.554 575.68 980.882 573.328 979.762 570.64C978.642 567.952 977.074 565.376 975.058 562.912C973.154 560.448 970.802 558.432 968.002 556.864C965.314 555.184 962.234 554.344 958.762 554.344C954.282 554.344 950.754 555.296 948.178 557.2C945.602 559.104 943.754 561.456 942.634 564.256C941.514 567.056 940.954 569.8 940.954 572.488C940.954 576.856 942.074 580.496 944.314 583.408C946.666 586.32 949.578 588.896 953.05 591.136C956.634 593.376 960.218 595.672 963.802 598.024C966.49 599.704 969.458 601.552 972.706 603.568C975.954 605.584 979.09 607.824 982.114 610.288C985.138 612.752 987.602 615.608 989.506 618.856C991.41 621.992 992.362 625.576 992.362 629.608C992.362 635.544 990.682 640.808 987.322 645.4C984.074 649.88 979.818 653.408 974.554 655.984C969.402 658.448 963.914 659.68 958.09 659.68C952.602 659.68 947.282 659.064 942.13 657.832C937.09 656.6 932.554 655.592 928.522 654.808C927.85 651.56 927.234 648.088 926.674 644.392C926.226 640.696 925.834 637.448 925.498 634.648C925.274 631.848 925.162 630.112 925.162 629.44C925.722 628.88 926.338 628.432 927.01 628.096C927.794 627.648 928.578 627.424 929.362 627.424C930.37 627.424 930.986 627.928 931.21 628.936C931.546 630.504 932.218 632.688 933.226 635.488C934.346 638.176 935.914 640.976 937.93 643.888C940.058 646.8 942.746 649.264 945.994 651.28C949.354 653.184 953.498 654.136 958.426 654.136C963.69 654.136 968.282 652.4 972.202 648.928C976.122 645.344 978.082 640.36 978.082 633.976C978.082 629.384 977.018 625.8 974.89 623.224C972.874 620.648 970.186 618.408 966.826 616.504C963.578 614.6 960.05 612.584 956.242 610.456C952.098 607.992 947.786 605.304 943.306 602.392C938.938 599.368 935.242 595.84 932.218 591.808C929.194 587.776 927.682 583.016 927.682 577.528C927.682 571.704 929.194 566.664 932.218 562.408C935.354 558.04 939.386 554.68 944.314 552.328C949.242 549.976 954.45 548.8 959.938 548.8ZM1019.28 617.344C1019.17 624.288 1020.35 630.112 1022.81 634.816C1025.27 639.52 1028.58 643.048 1032.72 645.4C1036.87 647.64 1041.35 648.76 1046.16 648.76C1049.19 648.76 1051.93 648.256 1054.39 647.248C1056.86 646.128 1058.93 644.896 1060.61 643.552C1062.29 642.096 1063.47 640.976 1064.14 640.192C1064.25 640.192 1064.47 640.416 1064.81 640.864C1065.26 641.2 1065.48 641.704 1065.48 642.376C1065.48 643.272 1065.15 644.28 1064.47 645.4C1063.47 646.968 1061.9 648.872 1059.77 651.112C1057.64 653.24 1054.95 655.144 1051.71 656.824C1048.46 658.504 1044.71 659.344 1040.45 659.344C1034.07 659.344 1028.41 657.832 1023.48 654.808C1018.55 651.784 1014.69 647.696 1011.89 642.544C1009.09 637.392 1007.69 631.624 1007.69 625.24C1007.69 619.752 1008.64 614.656 1010.55 609.952C1012.56 605.136 1015.14 600.992 1018.27 597.52C1021.52 593.936 1025.05 591.136 1028.86 589.12C1032.67 587.104 1036.36 586.096 1039.95 586.096C1044.87 586.096 1048.91 586.936 1052.04 588.616C1055.29 590.296 1057.81 592.368 1059.6 594.832C1061.51 597.296 1062.79 599.76 1063.47 602.224C1064.25 604.688 1064.64 606.76 1064.64 608.44C1064.64 610.792 1064.36 612.64 1063.8 613.984C1063.24 615.328 1062.18 616.056 1060.61 616.168C1059.6 616.28 1057.59 616.392 1054.56 616.504C1051.65 616.504 1048.29 616.56 1044.48 616.672C1040.67 616.784 1036.92 616.896 1033.23 617.008C1029.53 617.12 1026.39 617.232 1023.82 617.344C1021.24 617.344 1019.73 617.344 1019.28 617.344ZM1020.12 611.296H1046.83C1047.84 611.296 1048.68 611.016 1049.35 610.456C1050.14 609.896 1050.59 608.888 1050.7 607.432C1050.81 606.088 1050.42 604.184 1049.52 601.72C1048.63 599.256 1047.17 597.016 1045.15 595C1043.25 592.984 1040.62 591.976 1037.26 591.976C1033.79 591.976 1030.93 592.984 1028.69 595C1026.45 596.904 1024.66 599.144 1023.31 601.72C1022.08 604.184 1021.19 606.424 1020.63 608.44C1020.18 610.344 1020.01 611.296 1020.12 611.296ZM1122.93 586.264C1125.06 586.264 1127.07 586.768 1128.98 587.776C1130.88 588.672 1132.22 589.792 1133.01 591.136C1133.23 591.584 1133.4 592.2 1133.51 592.984C1133.62 593.768 1133.68 594.608 1133.68 595.504C1133.68 598.528 1132.95 600.712 1131.5 602.056C1130.15 603.4 1129.03 604.072 1128.14 604.072C1127.02 604.072 1125.95 603.68 1124.94 602.896C1123.94 602.112 1122.98 601.44 1122.09 600.88C1121.3 600.32 1120.46 599.872 1119.57 599.536C1118.78 599.088 1117.61 598.864 1116.04 598.864C1113.69 598.864 1111.5 599.872 1109.49 601.888C1107.58 603.792 1106.02 605.92 1104.78 608.272C1103.55 610.624 1102.94 612.416 1102.94 613.648V639.016C1102.94 641.48 1102.94 643.776 1102.94 645.904C1103.05 648.032 1103.33 649.768 1103.78 651.112C1104 651.672 1105.12 652.176 1107.14 652.624C1109.15 653.072 1111.28 653.408 1113.52 653.632C1115.76 653.744 1117.22 653.8 1117.89 653.8C1118.22 654.248 1118.39 655.032 1118.39 656.152C1118.5 657.272 1118.34 658.056 1117.89 658.504C1114.53 658.28 1111.11 658.112 1107.64 658C1104.17 657.776 1100.81 657.664 1097.56 657.664C1094.42 657.664 1091.4 657.776 1088.49 658C1085.58 658.112 1082.44 658.28 1079.08 658.504C1078.63 658.056 1078.41 657.272 1078.41 656.152C1078.52 655.032 1078.74 654.248 1079.08 653.8C1079.75 653.8 1080.87 653.744 1082.44 653.632C1084.12 653.408 1085.69 653.072 1087.14 652.624C1088.6 652.176 1089.38 651.672 1089.5 651.112C1089.94 649.768 1090.17 648.032 1090.17 645.904C1090.28 643.776 1090.34 641.48 1090.34 639.016V608.44C1090.34 607.32 1090.28 605.864 1090.17 604.072C1090.17 602.28 1089.94 600.88 1089.5 599.872C1089.16 598.864 1088.21 598.192 1086.64 597.856C1085.07 597.408 1083.5 597.184 1081.94 597.184C1080.37 597.072 1079.36 597.016 1078.91 597.016C1078.8 596.792 1078.69 596.12 1078.58 595C1078.46 593.88 1078.58 593.096 1078.91 592.648C1083.17 592.088 1087.31 591.248 1091.34 590.128C1095.38 589.008 1099.02 587.552 1102.26 585.76C1102.71 585.76 1103.1 586.096 1103.44 586.768C1103.89 587.44 1104.11 588 1104.11 588.448C1104.11 588.784 1104 590.072 1103.78 592.312C1103.55 594.552 1103.33 596.848 1103.1 599.2C1102.99 601.44 1102.94 602.896 1102.94 603.568C1102.94 603.904 1102.99 604.072 1103.1 604.072C1103.33 604.072 1103.5 604.016 1103.61 603.904C1104.73 601.552 1106.3 599.032 1108.31 596.344C1110.44 593.544 1112.79 591.192 1115.37 589.288C1117.94 587.272 1120.46 586.264 1122.93 586.264ZM1154.52 588.28C1157.65 588.28 1160.34 588.168 1162.58 587.944C1164.93 587.72 1167.73 587.552 1170.98 587.44C1171.2 587.888 1171.26 588.784 1171.15 590.128C1171.04 591.472 1170.76 592.144 1170.31 592.144C1169.97 592.144 1169.13 592.2 1167.79 592.312C1166.44 592.424 1165.16 592.704 1163.92 593.152C1162.8 593.488 1162.24 594.104 1162.24 595C1162.24 595.224 1162.3 595.448 1162.41 595.672L1180.39 640.024C1180.39 640.024 1180.84 638.848 1181.73 636.496C1182.63 634.032 1183.8 630.952 1185.26 627.256C1186.83 623.448 1188.45 619.36 1190.13 614.992C1191.81 610.624 1193.44 606.536 1195 602.728C1195.45 601.72 1195.73 600.768 1195.84 599.872C1195.96 598.864 1196.01 598.08 1196.01 597.52C1196.01 595.84 1195.12 594.552 1193.32 593.656C1191.53 592.648 1189.24 592.144 1186.44 592.144C1185.99 592.144 1185.76 591.472 1185.76 590.128C1185.76 588.784 1185.99 587.888 1186.44 587.44C1189.01 587.552 1191.03 587.72 1192.48 587.944C1193.94 588.168 1196.35 588.28 1199.71 588.28C1202.84 588.28 1205.36 588.168 1207.27 587.944C1209.17 587.72 1211.75 587.552 1215 587.44C1215.33 587.888 1215.39 588.784 1215.16 590.128C1215.05 591.472 1214.83 592.144 1214.49 592.144C1214.04 592.144 1213.09 592.312 1211.64 592.648C1210.29 592.984 1208.89 593.544 1207.44 594.328C1205.98 595.112 1204.92 596.288 1204.24 597.856C1201.78 603.68 1199.54 608.944 1197.52 613.648C1195.62 618.352 1193.72 622.944 1191.81 627.424C1190.02 631.792 1188.12 636.384 1186.1 641.2C1184.08 645.904 1181.9 651.168 1179.55 656.992C1179.32 657.664 1178.71 658.28 1177.7 658.84C1176.69 659.512 1175.91 659.848 1175.35 659.848C1174.56 659.848 1174.06 659.624 1173.84 659.176C1168.57 646.52 1163.92 635.04 1159.89 624.736C1155.97 614.432 1151.72 604.688 1147.12 595.504C1146.34 593.824 1144.94 592.872 1142.92 592.648C1140.91 592.312 1139.4 592.144 1138.39 592.144C1138.16 592.144 1138.05 592.144 1138.05 592.144C1137.94 591.696 1137.83 591.024 1137.72 590.128C1137.6 589.12 1137.72 588.224 1138.05 587.44C1141.41 587.552 1144.16 587.72 1146.28 587.944C1148.41 588.168 1151.16 588.28 1154.52 588.28ZM1230.78 560.728C1230.78 558.488 1231.56 556.584 1233.13 555.016C1234.81 553.336 1236.77 552.496 1239.01 552.496C1241.25 552.496 1243.15 553.336 1244.72 555.016C1246.4 556.584 1247.24 558.488 1247.24 560.728C1247.24 562.968 1246.4 564.928 1244.72 566.608C1243.15 568.176 1241.25 568.96 1239.01 568.96C1236.77 568.96 1234.81 568.176 1233.13 566.608C1231.56 564.928 1230.78 562.968 1230.78 560.728ZM1246.57 639.016C1246.57 641.48 1246.57 643.776 1246.57 645.904C1246.68 648.032 1246.96 649.768 1247.41 651.112C1247.63 651.672 1248.42 652.176 1249.76 652.624C1251.22 653.072 1252.73 653.408 1254.3 653.632C1255.87 653.744 1256.99 653.8 1257.66 653.8C1257.99 654.248 1258.16 655.032 1258.16 656.152C1258.27 657.272 1258.11 658.056 1257.66 658.504C1254.3 658.28 1251.33 658.112 1248.75 658C1246.29 657.776 1243.43 657.664 1240.19 657.664C1237.05 657.664 1234.19 657.776 1231.62 658C1229.04 658.112 1226.07 658.28 1222.71 658.504C1222.27 658.056 1222.04 657.272 1222.04 656.152C1222.15 655.032 1222.38 654.248 1222.71 653.8C1223.39 653.8 1224.51 653.744 1226.07 653.632C1227.75 653.408 1229.32 653.072 1230.78 652.624C1232.23 652.176 1233.02 651.672 1233.13 651.112C1233.58 649.768 1233.8 648.032 1233.8 645.904C1233.91 643.776 1233.97 641.48 1233.97 639.016V608.44C1233.97 607.32 1233.91 605.864 1233.8 604.072C1233.8 602.28 1233.58 600.88 1233.13 599.872C1232.79 598.864 1231.84 598.192 1230.27 597.856C1228.71 597.408 1227.14 597.184 1225.57 597.184C1224 597.072 1222.99 597.016 1222.55 597.016C1222.43 596.792 1222.32 596.12 1222.21 595C1222.1 593.88 1222.21 593.096 1222.55 592.648C1226.8 592.088 1230.95 591.248 1234.98 590.128C1239.01 589.008 1242.65 587.552 1245.9 585.76C1246.35 585.76 1246.74 586.096 1247.07 586.768C1247.52 587.44 1247.75 588 1247.75 588.448C1247.75 588.784 1247.63 589.736 1247.41 591.304C1247.19 592.872 1246.96 594.44 1246.74 596.008C1246.63 597.576 1246.57 598.64 1246.57 599.2V639.016ZM1315.57 586.096C1321.5 586.096 1325.98 587.328 1329.01 589.792C1332.03 592.256 1334.05 596.064 1335.05 601.216C1336.17 606.368 1336.73 612.92 1336.73 620.872V639.016C1336.73 641.48 1336.73 643.776 1336.73 645.904C1336.85 648.032 1337.13 649.768 1337.57 651.112C1337.8 651.672 1338.58 652.176 1339.93 652.624C1341.38 653.072 1342.89 653.408 1344.46 653.632C1346.03 653.744 1347.15 653.8 1347.82 653.8C1348.16 654.248 1348.33 655.032 1348.33 656.152C1348.44 657.272 1348.27 658.056 1347.82 658.504C1344.46 658.28 1341.49 658.112 1338.92 658C1336.45 657.776 1333.6 657.664 1330.35 657.664C1327.21 657.664 1324.36 657.776 1321.78 658C1319.21 658.112 1316.24 658.28 1312.88 658.504C1312.43 658.056 1312.21 657.272 1312.21 656.152C1312.32 655.032 1312.54 654.248 1312.88 653.8C1313.55 653.8 1314.67 653.744 1316.24 653.632C1317.92 653.408 1319.49 653.072 1320.94 652.624C1322.4 652.176 1323.18 651.672 1323.29 651.112C1323.74 649.768 1323.97 648.032 1323.97 645.904C1324.08 643.776 1324.13 641.48 1324.13 639.016V622.552C1324.13 615.72 1323.69 610.4 1322.79 606.592C1321.89 602.672 1320.27 599.872 1317.92 598.192C1315.57 596.512 1312.26 595.672 1308.01 595.672C1305.99 595.672 1303.75 596.344 1301.29 597.688C1298.93 598.92 1296.86 600.264 1295.07 601.72C1293.28 603.176 1292.38 604.184 1292.38 604.744V639.016C1292.38 641.48 1292.38 643.776 1292.38 645.904C1292.49 648.032 1292.77 649.768 1293.22 651.112C1293.45 651.672 1294.23 652.176 1295.57 652.624C1297.03 653.072 1298.54 653.408 1300.11 653.632C1301.68 653.744 1302.8 653.8 1303.47 653.8C1303.81 654.248 1303.97 655.032 1303.97 656.152C1304.09 657.272 1303.92 658.056 1303.47 658.504C1300.11 658.28 1297.14 658.112 1294.57 658C1292.1 657.776 1289.25 657.664 1286 657.664C1282.86 657.664 1280.01 657.776 1277.43 658C1274.85 658.112 1271.89 658.28 1268.53 658.504C1268.08 658.056 1267.85 657.272 1267.85 656.152C1267.97 655.032 1268.19 654.248 1268.53 653.8C1269.2 653.8 1270.32 653.744 1271.89 653.632C1273.57 653.408 1275.13 653.072 1276.59 652.624C1278.05 652.176 1278.83 651.672 1278.94 651.112C1279.39 649.768 1279.61 648.032 1279.61 645.904C1279.73 643.776 1279.78 641.48 1279.78 639.016V609.112C1279.78 607.992 1279.73 606.424 1279.61 604.408C1279.61 602.392 1279.39 600.88 1278.94 599.872C1278.61 598.864 1277.65 598.192 1276.09 597.856C1274.52 597.408 1272.95 597.184 1271.38 597.184C1269.81 597.072 1268.81 597.016 1268.36 597.016C1268.25 596.792 1268.13 596.12 1268.02 595C1267.91 593.88 1268.02 593.096 1268.36 592.648C1272.61 592.088 1276.76 591.248 1280.79 590.128C1284.82 589.008 1288.46 587.552 1291.71 585.76C1292.16 585.76 1292.55 586.096 1292.89 586.768C1293.33 587.44 1293.56 588 1293.56 588.448C1293.56 588.784 1293.45 589.68 1293.22 591.136C1293.11 592.48 1292.94 593.824 1292.72 595.168C1292.61 596.512 1292.55 597.408 1292.55 597.856C1292.55 598.304 1292.66 598.528 1292.89 598.528C1293 598.528 1293.17 598.416 1293.39 598.192C1294.51 596.96 1296.3 595.392 1298.77 593.488C1301.34 591.584 1304.14 589.904 1307.17 588.448C1310.19 586.88 1312.99 586.096 1315.57 586.096ZM1400.84 647.08C1405.2 647.08 1409.29 647.864 1413.1 649.432C1417.02 651 1420.16 653.072 1422.51 655.648C1424.97 658.224 1426.2 661.08 1426.2 664.216C1426.2 667.576 1425.03 671.048 1422.68 674.632C1420.44 678.216 1417.36 681.576 1413.44 684.712C1409.52 687.848 1404.98 690.368 1399.83 692.272C1394.68 694.288 1389.24 695.296 1383.53 695.296C1379.16 695.296 1374.8 694.568 1370.43 693.112C1366.06 691.656 1362.42 689.416 1359.51 686.392C1356.6 683.48 1355.14 679.784 1355.14 675.304C1355.14 672.84 1356.2 670.488 1358.33 668.248C1360.46 666.008 1362.92 663.992 1365.72 662.2C1368.52 660.408 1370.82 659.064 1372.61 658.168C1370.71 657.496 1368.69 656.488 1366.56 655.144C1364.55 653.8 1362.81 652.12 1361.36 650.104C1359.9 647.976 1359.17 645.568 1359.17 642.88C1360.18 641.76 1361.58 640.472 1363.37 639.016C1365.28 637.448 1367.12 635.992 1368.92 634.648C1370.82 633.304 1372.28 632.352 1373.28 631.792C1369.25 629.552 1365.95 626.528 1363.37 622.72C1360.91 618.8 1359.68 614.824 1359.68 610.792C1359.68 606.424 1360.85 602.392 1363.2 598.696C1365.67 594.888 1368.97 591.808 1373.12 589.456C1377.37 587.104 1382.13 585.928 1387.4 585.928C1390.98 585.928 1394 586.432 1396.47 587.44C1398.93 588.336 1400.89 589.064 1402.35 589.624C1403.92 590.184 1404.7 590.464 1404.7 590.464C1404.81 590.464 1405.26 590.576 1406.04 590.8L1423.68 588.28C1424.69 588.616 1425.2 589.176 1425.2 589.96C1425.2 590.632 1424.8 591.808 1424.02 593.488C1423.24 595.056 1422.4 596.12 1421.5 596.68C1420.16 596.568 1418.64 596.512 1416.96 596.512C1415.28 596.4 1413.83 596.288 1412.6 596.176C1411.36 596.064 1410.75 596.008 1410.75 596.008C1410.3 596.008 1410.08 596.176 1410.08 596.512C1410.52 596.96 1411.36 598.64 1412.6 601.552C1413.94 604.352 1414.61 607.656 1414.61 611.464C1414.61 615.272 1413.38 619.024 1410.92 622.72C1408.56 626.416 1405.26 629.496 1401 631.96C1396.86 634.312 1392.16 635.488 1386.89 635.488C1385.44 635.488 1383.76 635.32 1381.85 634.984C1379.95 634.648 1378.55 634.312 1377.65 633.976C1376.2 634.76 1374.8 635.824 1373.45 637.168C1372.22 638.512 1371.6 639.856 1371.6 641.2C1371.6 641.984 1372.44 643.16 1374.12 644.728C1375.8 646.296 1378.27 647.08 1381.52 647.08H1400.84ZM1393.28 658.672C1392.27 658.672 1390.59 658.672 1388.24 658.672C1386 658.784 1383.81 658.896 1381.68 659.008C1379.67 659.12 1378.44 659.288 1377.99 659.512C1376.2 660.632 1374.12 662.2 1371.77 664.216C1369.42 666.232 1368.24 668.304 1368.24 670.432C1368.24 675.696 1370.15 680.064 1373.96 683.536C1377.76 687.12 1383.14 688.912 1390.08 688.912C1393.89 688.912 1397.7 688.072 1401.51 686.392C1405.32 684.712 1408.51 682.528 1411.08 679.84C1413.66 677.152 1414.95 674.296 1414.95 671.272C1414.95 669.704 1414.22 667.912 1412.76 665.896C1411.31 663.992 1409.01 662.312 1405.88 660.856C1402.74 659.4 1398.54 658.672 1393.28 658.672ZM1386.72 590.968C1383.59 590.968 1380.96 591.92 1378.83 593.824C1376.7 595.728 1375.08 598.136 1373.96 601.048C1372.84 603.96 1372.28 606.984 1372.28 610.12C1372.28 613.48 1372.89 616.728 1374.12 619.864C1375.36 623 1377.15 625.576 1379.5 627.592C1381.85 629.608 1384.71 630.616 1388.07 630.616C1391.09 630.616 1393.61 629.72 1395.63 627.928C1397.76 626.024 1399.32 623.672 1400.33 620.872C1401.45 617.96 1402.01 614.992 1402.01 611.968C1402.01 608.496 1401.45 605.192 1400.33 602.056C1399.21 598.808 1397.53 596.176 1395.29 594.16C1393.05 592.032 1390.2 590.968 1386.72 590.968ZM1507.19 550.144C1510.44 550.144 1513.58 550.088 1516.6 549.976C1519.74 549.752 1522.98 549.584 1526.34 549.472C1526.79 549.92 1526.96 550.816 1526.85 552.16C1526.85 553.392 1526.68 554.232 1526.34 554.68C1525.67 554.68 1524.44 554.792 1522.65 555.016C1520.86 555.128 1519.18 555.352 1517.61 555.688C1516.04 556.024 1515.14 556.528 1514.92 557.2C1514.58 558.32 1514.36 559.776 1514.25 561.568C1514.25 563.36 1514.25 565.32 1514.25 567.448C1514.25 567.784 1514.25 568.12 1514.25 568.456C1514.25 568.792 1514.25 569.128 1514.25 569.464V598.192C1514.25 598.304 1514.3 598.416 1514.42 598.528C1514.53 598.528 1514.58 598.528 1514.58 598.528C1518.62 598.64 1522.76 598.752 1527.02 598.864C1531.27 598.976 1535.7 599.032 1540.29 599.032C1544.21 599.032 1548.41 598.976 1552.89 598.864C1557.48 598.752 1561.62 598.64 1565.32 598.528C1565.32 598.528 1565.38 598.472 1565.49 598.36C1565.6 598.248 1565.66 598.136 1565.66 598.024V569.464C1565.66 567 1565.6 564.704 1565.49 562.576C1565.49 560.336 1565.26 558.544 1564.82 557.2C1564.7 556.528 1563.81 556.024 1562.13 555.688C1560.56 555.352 1558.88 555.128 1557.09 555.016C1555.41 554.792 1554.23 554.68 1553.56 554.68C1553.22 554.232 1553 553.392 1552.89 552.16C1552.89 550.816 1553.11 549.92 1553.56 549.472C1556.92 549.584 1560.17 549.752 1563.3 549.976C1566.55 550.088 1569.74 550.144 1572.88 550.144C1576.13 550.144 1579.26 550.088 1582.29 549.976C1585.42 549.752 1588.67 549.584 1592.03 549.472C1592.48 549.92 1592.65 550.816 1592.54 552.16C1592.54 553.392 1592.37 554.232 1592.03 554.68C1591.36 554.68 1590.13 554.792 1588.34 555.016C1586.66 555.128 1585.03 555.352 1583.46 555.688C1581.9 556.024 1581 556.528 1580.78 557.2C1580.33 558.544 1580.05 560.336 1579.94 562.576C1579.94 564.704 1579.94 567 1579.94 569.464V638.512C1579.94 640.976 1579.94 643.272 1579.94 645.4C1580.05 647.528 1580.33 649.264 1580.78 650.608C1581 651.168 1581.9 651.672 1583.46 652.12C1585.03 652.568 1586.66 652.904 1588.34 653.128C1590.13 653.24 1591.36 653.296 1592.03 653.296C1592.37 653.744 1592.54 654.64 1592.54 655.984C1592.65 657.216 1592.48 658.056 1592.03 658.504C1588.67 658.28 1585.42 658.112 1582.29 658C1579.26 657.776 1576.13 657.664 1572.88 657.664C1569.74 657.664 1566.55 657.776 1563.3 658C1560.17 658.112 1556.92 658.28 1553.56 658.504C1553.11 658.056 1552.89 657.216 1552.89 655.984C1553 654.64 1553.22 653.744 1553.56 653.296C1554.23 653.296 1555.41 653.24 1557.09 653.128C1558.88 652.904 1560.56 652.568 1562.13 652.12C1563.81 651.672 1564.7 651.168 1564.82 650.608C1565.26 649.264 1565.49 647.528 1565.49 645.4C1565.6 643.272 1565.66 640.976 1565.66 638.512V605.92C1565.66 605.696 1565.6 605.584 1565.49 605.584C1565.38 605.472 1565.32 605.416 1565.32 605.416C1561.51 605.304 1557.42 605.192 1553.06 605.08C1548.8 604.856 1544.54 604.744 1540.29 604.744C1532.67 604.744 1527.07 604.8 1523.49 604.912C1519.9 605.024 1517.55 605.136 1516.43 605.248C1515.31 605.36 1514.64 605.472 1514.42 605.584C1514.3 605.696 1514.25 605.808 1514.25 605.92V638.512C1514.25 638.848 1514.25 639.184 1514.25 639.52C1514.25 639.856 1514.25 640.192 1514.25 640.528C1514.25 642.656 1514.25 644.616 1514.25 646.408C1514.36 648.088 1514.58 649.488 1514.92 650.608C1515.14 651.168 1516.04 651.672 1517.61 652.12C1519.18 652.568 1520.86 652.904 1522.65 653.128C1524.44 653.24 1525.67 653.296 1526.34 653.296C1526.68 653.744 1526.85 654.64 1526.85 655.984C1526.96 657.216 1526.79 658.056 1526.34 658.504C1522.98 658.28 1519.74 658.112 1516.6 658C1513.58 657.776 1510.44 657.664 1507.19 657.664C1504.06 657.664 1500.86 657.776 1497.62 658C1494.37 658.112 1491.06 658.28 1487.7 658.504C1487.26 658.056 1487.03 657.216 1487.03 655.984C1487.14 654.64 1487.37 653.744 1487.7 653.296C1488.38 653.296 1489.61 653.24 1491.4 653.128C1493.19 652.904 1494.87 652.568 1496.44 652.12C1498.12 651.672 1499.02 651.168 1499.13 650.608C1499.58 649.264 1499.8 647.528 1499.8 645.4C1499.91 643.272 1499.97 640.976 1499.97 638.512V569.464C1499.97 567 1499.91 564.704 1499.8 562.576C1499.8 560.336 1499.58 558.544 1499.13 557.2C1499.02 556.528 1498.12 556.024 1496.44 555.688C1494.87 555.352 1493.19 555.128 1491.4 555.016C1489.61 554.792 1488.38 554.68 1487.7 554.68C1487.37 554.232 1487.14 553.392 1487.03 552.16C1487.03 550.816 1487.26 549.92 1487.7 549.472C1491.06 549.584 1494.37 549.752 1497.62 549.976C1500.86 550.088 1504.06 550.144 1507.19 550.144ZM1615.8 617.344C1615.69 624.288 1616.86 630.112 1619.33 634.816C1621.79 639.52 1625.1 643.048 1629.24 645.4C1633.38 647.64 1637.86 648.76 1642.68 648.76C1645.7 648.76 1648.45 648.256 1650.91 647.248C1653.38 646.128 1655.45 644.896 1657.13 643.552C1658.81 642.096 1659.98 640.976 1660.66 640.192C1660.77 640.192 1660.99 640.416 1661.33 640.864C1661.78 641.2 1662 641.704 1662 642.376C1662 643.272 1661.66 644.28 1660.99 645.4C1659.98 646.968 1658.42 648.872 1656.29 651.112C1654.16 653.24 1651.47 655.144 1648.22 656.824C1644.98 658.504 1641.22 659.344 1636.97 659.344C1630.58 659.344 1624.93 657.832 1620 654.808C1615.07 651.784 1611.21 647.696 1608.41 642.544C1605.61 637.392 1604.21 631.624 1604.21 625.24C1604.21 619.752 1605.16 614.656 1607.06 609.952C1609.08 605.136 1611.66 600.992 1614.79 597.52C1618.04 593.936 1621.57 591.136 1625.38 589.12C1629.18 587.104 1632.88 586.096 1636.46 586.096C1641.39 586.096 1645.42 586.936 1648.56 588.616C1651.81 590.296 1654.33 592.368 1656.12 594.832C1658.02 597.296 1659.31 599.76 1659.98 602.224C1660.77 604.688 1661.16 606.76 1661.16 608.44C1661.16 610.792 1660.88 612.64 1660.32 613.984C1659.76 615.328 1658.7 616.056 1657.13 616.168C1656.12 616.28 1654.1 616.392 1651.08 616.504C1648.17 616.504 1644.81 616.56 1641 616.672C1637.19 616.784 1633.44 616.896 1629.74 617.008C1626.05 617.12 1622.91 617.232 1620.34 617.344C1617.76 617.344 1616.25 617.344 1615.8 617.344ZM1616.64 611.296H1643.35C1644.36 611.296 1645.2 611.016 1645.87 610.456C1646.66 609.896 1647.1 608.888 1647.22 607.432C1647.33 606.088 1646.94 604.184 1646.04 601.72C1645.14 599.256 1643.69 597.016 1641.67 595C1639.77 592.984 1637.14 591.976 1633.78 591.976C1630.3 591.976 1627.45 592.984 1625.21 595C1622.97 596.904 1621.18 599.144 1619.83 601.72C1618.6 604.184 1617.7 606.424 1617.14 608.44C1616.7 610.344 1616.53 611.296 1616.64 611.296ZM1709.2 586.432C1712.33 586.432 1715.25 587.44 1717.93 589.456C1720.73 591.472 1722.97 594.16 1724.65 597.52C1726.33 600.88 1727.17 604.688 1727.17 608.944V642.712C1727.17 644.84 1727.57 646.688 1728.35 648.256C1729.13 649.712 1730.42 650.44 1732.21 650.44C1733.78 650.44 1735.01 650.104 1735.91 649.432C1736.81 648.76 1737.37 648.368 1737.59 648.256C1737.81 648.256 1737.98 648.424 1738.09 648.76C1738.21 649.096 1738.26 649.376 1738.26 649.6C1738.26 650.832 1737.98 651.896 1737.42 652.792C1736.75 653.352 1735.63 654.136 1734.06 655.144C1732.61 656.152 1731.04 657.048 1729.36 657.832C1727.79 658.616 1726.39 659.008 1725.16 659.008C1722.81 659.008 1720.68 657.832 1718.77 655.48C1716.98 653.128 1715.81 650.72 1715.25 648.256C1714.8 648.704 1713.73 649.544 1712.05 650.776C1710.49 652.008 1708.64 653.296 1706.51 654.64C1704.38 655.872 1702.25 656.992 1700.13 658C1698.11 658.896 1696.37 659.344 1694.92 659.344C1689.54 659.344 1685.01 657.552 1681.31 653.968C1677.61 650.272 1675.77 645.792 1675.77 640.528C1675.77 637.168 1676.66 634.312 1678.45 631.96C1680.36 629.496 1682.21 627.928 1684 627.256C1687.13 626.136 1690.61 624.96 1694.41 623.728C1698.33 622.384 1701.97 621.096 1705.33 619.864C1708.69 618.632 1711.16 617.68 1712.73 617.008C1713.62 616.672 1714.18 616.28 1714.41 615.832C1714.63 615.272 1714.74 614.264 1714.74 612.808V608.44C1714.74 605.976 1714.13 603.568 1712.89 601.216C1711.66 598.752 1709.98 596.736 1707.85 595.168C1705.73 593.488 1703.32 592.648 1700.63 592.648C1697.83 592.648 1695.76 593.544 1694.41 595.336C1693.07 597.128 1692.12 599.648 1691.56 602.896C1690.55 608.16 1687.97 610.792 1683.83 610.792C1682.04 610.792 1680.64 610.064 1679.63 608.608C1678.73 607.152 1678.29 605.584 1678.29 603.904C1678.29 603.568 1678.4 602.952 1678.62 602.056C1678.85 601.048 1679.13 600.32 1679.46 599.872C1681.14 598.304 1683.55 596.456 1686.69 594.328C1689.82 592.2 1693.35 590.352 1697.27 588.784C1701.3 587.216 1705.28 586.432 1709.2 586.432ZM1700.46 650.44C1702.37 650.44 1704.44 649.992 1706.68 649.096C1708.92 648.2 1710.82 647.248 1712.39 646.24C1713.96 645.12 1714.74 644.28 1714.74 643.72V621.376C1712.61 622.048 1709.93 622.888 1706.68 623.896C1703.43 624.904 1701.02 625.688 1699.45 626.248C1696.54 627.368 1694.13 628.992 1692.23 631.12C1690.33 633.248 1689.37 635.88 1689.37 639.016C1689.37 642.04 1690.44 644.728 1692.57 647.08C1694.69 649.32 1697.33 650.44 1700.46 650.44ZM1756.56 566.44C1756.56 565.208 1756.51 563.752 1756.39 562.072C1756.39 560.28 1756.17 558.88 1755.72 557.872C1755.27 556.64 1754.04 555.856 1752.03 555.52C1750.12 555.184 1748.05 555.016 1745.81 555.016C1745.7 555.016 1745.59 554.344 1745.47 553C1745.47 551.544 1745.64 550.76 1745.98 550.648C1750.12 550.2 1754.15 549.416 1758.07 548.296C1761.99 547.064 1765.69 545.664 1769.16 544.096C1769.61 544.096 1770 544.432 1770.34 545.104C1770.79 545.664 1771.01 546.224 1771.01 546.784C1771.01 546.784 1770.67 548.016 1770 550.48C1769.44 552.944 1769.16 556.472 1769.16 561.064V639.016C1769.16 641.48 1769.16 643.776 1769.16 645.904C1769.27 648.032 1769.55 649.768 1770 651.112C1770.23 651.672 1771.01 652.176 1772.35 652.624C1773.81 653.072 1775.32 653.408 1776.89 653.632C1778.57 653.744 1779.75 653.8 1780.42 653.8C1780.75 654.248 1780.92 655.032 1780.92 656.152C1781.03 657.272 1780.87 658.056 1780.42 658.504C1777.06 658.28 1774.09 658.112 1771.51 658C1768.94 657.776 1766.03 657.664 1762.78 657.664C1759.64 657.664 1756.79 657.776 1754.21 658C1751.75 658.112 1748.83 658.28 1745.47 658.504C1745.03 658.056 1744.8 657.272 1744.8 656.152C1744.91 655.032 1745.14 654.248 1745.47 653.8C1746.15 653.8 1747.27 653.744 1748.83 653.632C1750.4 653.408 1751.91 653.072 1753.37 652.624C1754.83 652.176 1755.61 651.672 1755.72 651.112C1756.17 649.768 1756.39 648.032 1756.39 645.904C1756.51 643.776 1756.56 641.48 1756.56 639.016V566.44ZM1811.67 587.104H1832.84C1833.4 587.104 1833.68 587.72 1833.68 588.952C1833.68 590.632 1832.89 592.256 1831.32 593.824H1811.67V636.832C1811.67 645.792 1815.31 650.272 1822.59 650.272C1825.05 650.272 1827.29 649.768 1829.31 648.76C1831.32 647.752 1832.61 647.024 1833.17 646.576C1833.51 646.688 1833.68 647.024 1833.68 647.584C1833.68 648.816 1833.45 649.656 1833 650.104C1832.22 651 1830.99 652.176 1829.31 653.632C1827.74 655.088 1825.84 656.376 1823.6 657.496C1821.36 658.616 1818.89 659.176 1816.2 659.176C1813.4 659.176 1810.66 658.672 1807.97 657.664C1805.4 656.656 1803.27 654.864 1801.59 652.288C1799.91 649.712 1799.07 646.072 1799.07 641.368V593.824H1789.49C1789.27 593.824 1789.1 593.656 1788.99 593.32C1788.88 592.872 1788.82 592.536 1788.82 592.312C1788.82 592.088 1789.16 591.584 1789.83 590.8C1790.5 589.904 1791.17 589.064 1791.84 588.28C1792.63 587.496 1793.02 587.104 1793.02 587.104H1799.07V576.856C1800.19 575.624 1801.48 574.224 1802.93 572.656C1804.5 570.976 1805.9 569.464 1807.13 568.12C1808.36 566.664 1809.04 565.88 1809.15 565.768C1809.6 565.32 1810.1 565.096 1810.66 565.096C1811.33 565.096 1811.67 565.264 1811.67 565.6V587.104ZM1888.4 586.096C1894.34 586.096 1898.82 587.328 1901.84 589.792C1904.86 592.256 1906.88 596.064 1907.89 601.216C1909.01 606.368 1909.57 612.92 1909.57 620.872V639.016C1909.57 641.48 1909.57 643.776 1909.57 645.904C1909.68 648.032 1909.96 649.768 1910.41 651.112C1910.63 651.672 1911.42 652.176 1912.76 652.624C1914.22 653.072 1915.73 653.408 1917.3 653.632C1918.98 653.744 1920.15 653.8 1920.82 653.8C1921.16 654.248 1921.33 655.032 1921.33 656.152C1921.44 657.272 1921.27 658.056 1920.82 658.504C1917.46 658.28 1914.5 658.112 1911.92 658C1909.34 657.776 1906.43 657.664 1903.18 657.664C1900.05 657.664 1897.19 657.776 1894.62 658C1892.15 658.112 1889.24 658.28 1885.88 658.504C1885.43 658.056 1885.21 657.272 1885.21 656.152C1885.32 655.032 1885.54 654.248 1885.88 653.8C1886.55 653.8 1887.67 653.744 1889.24 653.632C1890.81 653.408 1892.32 653.072 1893.78 652.624C1895.23 652.176 1896.02 651.672 1896.13 651.112C1896.58 649.768 1896.8 648.032 1896.8 645.904C1896.91 643.776 1896.97 641.48 1896.97 639.016V622.552C1896.97 615.72 1896.52 610.4 1895.62 606.592C1894.73 602.672 1893.1 599.872 1890.75 598.192C1888.4 596.512 1885.1 595.672 1880.84 595.672C1878.82 595.672 1876.58 596.344 1874.12 597.688C1871.77 598.92 1869.7 600.264 1867.9 601.72C1866.11 603.176 1865.22 604.184 1865.22 604.744V639.016C1865.22 641.48 1865.22 643.776 1865.22 645.904C1865.33 648.032 1865.61 649.768 1866.06 651.112C1866.28 651.672 1867.06 652.176 1868.41 652.624C1869.86 653.072 1871.38 653.408 1872.94 653.632C1874.62 653.744 1875.8 653.8 1876.47 653.8C1876.81 654.248 1876.98 655.032 1876.98 656.152C1877.09 657.272 1876.92 658.056 1876.47 658.504C1873.11 658.28 1870.14 658.112 1867.57 658C1864.99 657.776 1862.08 657.664 1858.83 657.664C1855.7 657.664 1852.84 657.776 1850.26 658C1847.8 658.112 1844.89 658.28 1841.53 658.504C1841.08 658.056 1840.86 657.272 1840.86 656.152C1840.97 655.032 1841.19 654.248 1841.53 653.8C1842.2 653.8 1843.32 653.744 1844.89 653.632C1846.46 653.408 1847.97 653.072 1849.42 652.624C1850.88 652.176 1851.66 651.672 1851.78 651.112C1852.22 649.768 1852.45 648.032 1852.45 645.904C1852.56 643.776 1852.62 641.48 1852.62 639.016V566.44C1852.62 565.32 1852.56 563.864 1852.45 562.072C1852.45 560.28 1852.22 558.88 1851.78 557.872C1851.33 556.64 1850.1 555.856 1848.08 555.52C1846.18 555.184 1844.1 555.016 1841.86 555.016C1841.75 555.016 1841.64 554.344 1841.53 553C1841.53 551.544 1841.7 550.76 1842.03 550.648C1846.18 550.2 1850.21 549.416 1854.13 548.296C1858.05 547.064 1861.74 545.664 1865.22 544.096C1865.66 544.096 1866.06 544.432 1866.39 545.104C1866.84 545.664 1867.06 546.224 1867.06 546.784C1867.06 546.784 1866.73 548.016 1866.06 550.48C1865.5 552.944 1865.22 556.472 1865.22 561.064V598.192C1865.22 598.416 1865.38 598.528 1865.72 598.528C1865.83 598.528 1866 598.416 1866.22 598.192C1867.34 596.96 1869.14 595.392 1871.6 593.488C1874.18 591.584 1876.98 589.904 1880 588.448C1883.02 586.88 1885.82 586.096 1888.4 586.096ZM2014.39 586.432C2017.52 586.432 2020.44 587.44 2023.12 589.456C2025.92 591.472 2028.16 594.16 2029.84 597.52C2031.52 600.88 2032.36 604.688 2032.36 608.944V642.712C2032.36 644.84 2032.76 646.688 2033.54 648.256C2034.32 649.712 2035.61 650.44 2037.4 650.44C2038.97 650.44 2040.2 650.104 2041.1 649.432C2042 648.76 2042.56 648.368 2042.78 648.256C2043 648.256 2043.17 648.424 2043.28 648.76C2043.4 649.096 2043.45 649.376 2043.45 649.6C2043.45 650.832 2043.17 651.896 2042.61 652.792C2041.94 653.352 2040.82 654.136 2039.25 655.144C2037.8 656.152 2036.23 657.048 2034.55 657.832C2032.98 658.616 2031.58 659.008 2030.35 659.008C2028 659.008 2025.87 657.832 2023.96 655.48C2022.17 653.128 2021 650.72 2020.44 648.256C2019.99 648.704 2018.92 649.544 2017.24 650.776C2015.68 652.008 2013.83 653.296 2011.7 654.64C2009.57 655.872 2007.44 656.992 2005.32 658C2003.3 658.896 2001.56 659.344 2000.11 659.344C1994.73 659.344 1990.2 657.552 1986.5 653.968C1982.8 650.272 1980.96 645.792 1980.96 640.528C1980.96 637.168 1981.85 634.312 1983.64 631.96C1985.55 629.496 1987.4 627.928 1989.19 627.256C1992.32 626.136 1995.8 624.96 1999.6 623.728C2003.52 622.384 2007.16 621.096 2010.52 619.864C2013.88 618.632 2016.35 617.68 2017.92 617.008C2018.81 616.672 2019.37 616.28 2019.6 615.832C2019.82 615.272 2019.93 614.264 2019.93 612.808V608.44C2019.93 605.976 2019.32 603.568 2018.08 601.216C2016.85 598.752 2015.17 596.736 2013.04 595.168C2010.92 593.488 2008.51 592.648 2005.82 592.648C2003.02 592.648 2000.95 593.544 1999.6 595.336C1998.26 597.128 1997.31 599.648 1996.75 602.896C1995.74 608.16 1993.16 610.792 1989.02 610.792C1987.23 610.792 1985.83 610.064 1984.82 608.608C1983.92 607.152 1983.48 605.584 1983.48 603.904C1983.48 603.568 1983.59 602.952 1983.81 602.056C1984.04 601.048 1984.32 600.32 1984.65 599.872C1986.33 598.304 1988.74 596.456 1991.88 594.328C1995.01 592.2 1998.54 590.352 2002.46 588.784C2006.49 587.216 2010.47 586.432 2014.39 586.432ZM2005.65 650.44C2007.56 650.44 2009.63 649.992 2011.87 649.096C2014.11 648.2 2016.01 647.248 2017.58 646.24C2019.15 645.12 2019.93 644.28 2019.93 643.72V621.376C2017.8 622.048 2015.12 622.888 2011.87 623.896C2008.62 624.904 2006.21 625.688 2004.64 626.248C2001.73 627.368 1999.32 628.992 1997.42 631.12C1995.52 633.248 1994.56 635.88 1994.56 639.016C1994.56 642.04 1995.63 644.728 1997.76 647.08C1999.88 649.32 2002.52 650.44 2005.65 650.44ZM2100.05 586.096C2105.99 586.096 2110.47 587.328 2113.49 589.792C2116.52 592.256 2118.53 596.064 2119.54 601.216C2120.66 606.368 2121.22 612.92 2121.22 620.872V639.016C2121.22 641.48 2121.22 643.776 2121.22 645.904C2121.33 648.032 2121.61 649.768 2122.06 651.112C2122.29 651.672 2123.07 652.176 2124.41 652.624C2125.87 653.072 2127.38 653.408 2128.95 653.632C2130.52 653.744 2131.64 653.8 2132.31 653.8C2132.65 654.248 2132.81 655.032 2132.81 656.152C2132.93 657.272 2132.76 658.056 2132.31 658.504C2128.95 658.28 2125.98 658.112 2123.41 658C2120.94 657.776 2118.09 657.664 2114.84 657.664C2111.7 657.664 2108.85 657.776 2106.27 658C2103.69 658.112 2100.73 658.28 2097.37 658.504C2096.92 658.056 2096.69 657.272 2096.69 656.152C2096.81 655.032 2097.03 654.248 2097.37 653.8C2098.04 653.8 2099.16 653.744 2100.73 653.632C2102.41 653.408 2103.97 653.072 2105.43 652.624C2106.89 652.176 2107.67 651.672 2107.78 651.112C2108.23 649.768 2108.45 648.032 2108.45 645.904C2108.57 643.776 2108.62 641.48 2108.62 639.016V622.552C2108.62 615.72 2108.17 610.4 2107.28 606.592C2106.38 602.672 2104.76 599.872 2102.41 598.192C2100.05 596.512 2096.75 595.672 2092.49 595.672C2090.48 595.672 2088.24 596.344 2085.77 597.688C2083.42 598.92 2081.35 600.264 2079.56 601.72C2077.77 603.176 2076.87 604.184 2076.87 604.744V639.016C2076.87 641.48 2076.87 643.776 2076.87 645.904C2076.98 648.032 2077.26 649.768 2077.71 651.112C2077.93 651.672 2078.72 652.176 2080.06 652.624C2081.52 653.072 2083.03 653.408 2084.6 653.632C2086.17 653.744 2087.29 653.8 2087.96 653.8C2088.29 654.248 2088.46 655.032 2088.46 656.152C2088.57 657.272 2088.41 658.056 2087.96 658.504C2084.6 658.28 2081.63 658.112 2079.05 658C2076.59 657.776 2073.73 657.664 2070.49 657.664C2067.35 657.664 2064.49 657.776 2061.92 658C2059.34 658.112 2056.37 658.28 2053.01 658.504C2052.57 658.056 2052.34 657.272 2052.34 656.152C2052.45 655.032 2052.68 654.248 2053.01 653.8C2053.69 653.8 2054.81 653.744 2056.37 653.632C2058.05 653.408 2059.62 653.072 2061.08 652.624C2062.53 652.176 2063.32 651.672 2063.43 651.112C2063.88 649.768 2064.1 648.032 2064.1 645.904C2064.21 643.776 2064.27 641.48 2064.27 639.016V609.112C2064.27 607.992 2064.21 606.424 2064.1 604.408C2064.1 602.392 2063.88 600.88 2063.43 599.872C2063.09 598.864 2062.14 598.192 2060.57 597.856C2059.01 597.408 2057.44 597.184 2055.87 597.184C2054.3 597.072 2053.29 597.016 2052.85 597.016C2052.73 596.792 2052.62 596.12 2052.51 595C2052.4 593.88 2052.51 593.096 2052.85 592.648C2057.1 592.088 2061.25 591.248 2065.28 590.128C2069.31 589.008 2072.95 587.552 2076.2 585.76C2076.65 585.76 2077.04 586.096 2077.37 586.768C2077.82 587.44 2078.05 588 2078.05 588.448C2078.05 588.784 2077.93 589.68 2077.71 591.136C2077.6 592.48 2077.43 593.824 2077.21 595.168C2077.09 596.512 2077.04 597.408 2077.04 597.856C2077.04 598.304 2077.15 598.528 2077.37 598.528C2077.49 598.528 2077.65 598.416 2077.88 598.192C2079 596.96 2080.79 595.392 2083.25 593.488C2085.83 591.584 2088.63 589.904 2091.65 588.448C2094.68 586.88 2097.48 586.096 2100.05 586.096ZM2181.46 586.096C2183.25 586.096 2185.38 586.32 2187.84 586.768C2190.31 587.104 2191.93 587.44 2192.72 587.776C2193.28 587.776 2193.56 586.656 2193.56 584.416V566.44C2193.56 565.208 2193.5 563.752 2193.39 562.072C2193.39 560.28 2193.16 558.88 2192.72 557.872C2192.27 556.64 2191.04 555.856 2189.02 555.52C2187 555.184 2184.88 555.016 2182.64 555.016C2182.52 555.016 2182.41 554.344 2182.3 553C2182.3 551.544 2182.47 550.76 2182.8 550.648C2186.95 550.2 2190.98 549.416 2194.9 548.296C2198.93 547.064 2202.68 545.664 2206.16 544.096C2206.6 544.096 2207 544.432 2207.33 545.104C2207.78 545.664 2208 546.224 2208 546.784C2208 546.784 2207.67 548.016 2207 550.48C2206.44 552.944 2206.16 556.472 2206.16 561.064V631.288C2206.16 634.424 2206.21 637.616 2206.32 640.864C2206.55 644 2206.88 646.184 2207.33 647.416C2207.89 648.648 2209.18 649.432 2211.2 649.768C2213.32 649.992 2214.95 650.16 2216.07 650.272C2216.52 650.272 2216.8 650.272 2216.91 650.272C2217.13 650.384 2217.24 650.72 2217.24 651.28C2217.36 651.728 2217.41 652.064 2217.41 652.288C2217.41 652.4 2217.3 652.848 2217.08 653.632C2216.96 654.304 2216.68 654.64 2216.24 654.64C2213.44 654.752 2210.36 655.2 2207 655.984C2203.75 656.768 2200.95 657.496 2198.6 658.168C2196.24 658.952 2195.01 659.344 2194.9 659.344C2194.45 659.344 2194.12 658.952 2193.89 658.168C2193.67 657.384 2193.56 656.712 2193.56 656.152V650.44C2193.56 649.432 2193.39 649.096 2193.05 649.432C2192.27 650.328 2190.59 651.56 2188.01 653.128C2185.55 654.696 2182.8 656.152 2179.78 657.496C2176.76 658.728 2173.9 659.344 2171.21 659.344C2166.28 659.344 2161.58 657.832 2157.1 654.808C2152.73 651.672 2149.15 647.472 2146.35 642.208C2143.66 636.832 2142.32 630.84 2142.32 624.232C2142.32 618.856 2143.6 613.872 2146.18 609.28C2148.87 604.576 2152.23 600.544 2156.26 597.184C2160.4 593.712 2164.72 591.024 2169.2 589.12C2173.68 587.104 2177.76 586.096 2181.46 586.096ZM2176.08 592.984C2171.94 592.984 2168.36 594.328 2165.33 597.016C2162.42 599.592 2160.12 602.952 2158.44 607.096C2156.88 611.24 2156.09 615.608 2156.09 620.2C2156.09 625.352 2156.99 630.112 2158.78 634.48C2160.57 638.848 2163.2 642.376 2166.68 645.064C2170.15 647.752 2174.35 649.096 2179.28 649.096C2182.97 649.096 2186.28 648.368 2189.19 646.912C2192.1 645.344 2193.56 643.888 2193.56 642.544V601.048C2193.56 599.144 2191.76 597.352 2188.18 595.672C2184.71 593.88 2180.68 592.984 2176.08 592.984ZM2299.55 550.144C2302.8 550.144 2305.94 550.088 2308.96 549.976C2312.1 549.752 2315.35 549.584 2318.71 549.472C2319.15 549.92 2319.32 550.816 2319.21 552.16C2319.21 553.392 2319.04 554.232 2318.71 554.68C2318.03 554.68 2316.8 554.792 2315.01 555.016C2313.22 555.128 2311.54 555.352 2309.97 555.688C2308.4 556.024 2307.51 556.528 2307.28 557.2C2306.95 558.32 2306.72 559.776 2306.61 561.568C2306.61 563.36 2306.61 565.32 2306.61 567.448C2306.61 567.784 2306.61 568.12 2306.61 568.456C2306.61 568.792 2306.61 569.128 2306.61 569.464V598.192C2306.61 598.304 2306.67 598.416 2306.78 598.528C2306.89 598.528 2306.95 598.528 2306.95 598.528C2310.98 598.64 2315.12 598.752 2319.38 598.864C2323.63 598.976 2328.06 599.032 2332.65 599.032C2336.57 599.032 2340.77 598.976 2345.25 598.864C2349.84 598.752 2353.99 598.64 2357.68 598.528C2357.68 598.528 2357.74 598.472 2357.85 598.36C2357.96 598.248 2358.02 598.136 2358.02 598.024V569.464C2358.02 567 2357.96 564.704 2357.85 562.576C2357.85 560.336 2357.63 558.544 2357.18 557.2C2357.07 556.528 2356.17 556.024 2354.49 555.688C2352.92 555.352 2351.24 555.128 2349.45 555.016C2347.77 554.792 2346.59 554.68 2345.92 554.68C2345.59 554.232 2345.36 553.392 2345.25 552.16C2345.25 550.816 2345.47 549.92 2345.92 549.472C2349.28 549.584 2352.53 549.752 2355.67 549.976C2358.91 550.088 2362.11 550.144 2365.24 550.144C2368.49 550.144 2371.63 550.088 2374.65 549.976C2377.79 549.752 2381.03 549.584 2384.39 549.472C2384.84 549.92 2385.01 550.816 2384.9 552.16C2384.9 553.392 2384.73 554.232 2384.39 554.68C2383.72 554.68 2382.49 554.792 2380.7 555.016C2379.02 555.128 2377.39 555.352 2375.83 555.688C2374.26 556.024 2373.36 556.528 2373.14 557.2C2372.69 558.544 2372.41 560.336 2372.3 562.576C2372.3 564.704 2372.3 567 2372.3 569.464V638.512C2372.3 640.976 2372.3 643.272 2372.3 645.4C2372.41 647.528 2372.69 649.264 2373.14 650.608C2373.36 651.168 2374.26 651.672 2375.83 652.12C2377.39 652.568 2379.02 652.904 2380.7 653.128C2382.49 653.24 2383.72 653.296 2384.39 653.296C2384.73 653.744 2384.9 654.64 2384.9 655.984C2385.01 657.216 2384.84 658.056 2384.39 658.504C2381.03 658.28 2377.79 658.112 2374.65 658C2371.63 657.776 2368.49 657.664 2365.24 657.664C2362.11 657.664 2358.91 657.776 2355.67 658C2352.53 658.112 2349.28 658.28 2345.92 658.504C2345.47 658.056 2345.25 657.216 2345.25 655.984C2345.36 654.64 2345.59 653.744 2345.92 653.296C2346.59 653.296 2347.77 653.24 2349.45 653.128C2351.24 652.904 2352.92 652.568 2354.49 652.12C2356.17 651.672 2357.07 651.168 2357.18 650.608C2357.63 649.264 2357.85 647.528 2357.85 645.4C2357.96 643.272 2358.02 640.976 2358.02 638.512V605.92C2358.02 605.696 2357.96 605.584 2357.85 605.584C2357.74 605.472 2357.68 605.416 2357.68 605.416C2353.87 605.304 2349.79 605.192 2345.42 605.08C2341.16 604.856 2336.91 604.744 2332.65 604.744C2325.03 604.744 2319.43 604.8 2315.85 604.912C2312.27 605.024 2309.91 605.136 2308.79 605.248C2307.67 605.36 2307 605.472 2306.78 605.584C2306.67 605.696 2306.61 605.808 2306.61 605.92V638.512C2306.61 638.848 2306.61 639.184 2306.61 639.52C2306.61 639.856 2306.61 640.192 2306.61 640.528C2306.61 642.656 2306.61 644.616 2306.61 646.408C2306.72 648.088 2306.95 649.488 2307.28 650.608C2307.51 651.168 2308.4 651.672 2309.97 652.12C2311.54 652.568 2313.22 652.904 2315.01 653.128C2316.8 653.24 2318.03 653.296 2318.71 653.296C2319.04 653.744 2319.21 654.64 2319.21 655.984C2319.32 657.216 2319.15 658.056 2318.71 658.504C2315.35 658.28 2312.1 658.112 2308.96 658C2305.94 657.776 2302.8 657.664 2299.55 657.664C2296.42 657.664 2293.23 657.776 2289.98 658C2286.73 658.112 2283.43 658.28 2280.07 658.504C2279.62 658.056 2279.39 657.216 2279.39 655.984C2279.51 654.64 2279.73 653.744 2280.07 653.296C2280.74 653.296 2281.97 653.24 2283.76 653.128C2285.55 652.904 2287.23 652.568 2288.8 652.12C2290.48 651.672 2291.38 651.168 2291.49 650.608C2291.94 649.264 2292.16 647.528 2292.16 645.4C2292.27 643.272 2292.33 640.976 2292.33 638.512V569.464C2292.33 567 2292.27 564.704 2292.16 562.576C2292.16 560.336 2291.94 558.544 2291.49 557.2C2291.38 556.528 2290.48 556.024 2288.8 555.688C2287.23 555.352 2285.55 555.128 2283.76 555.016C2281.97 554.792 2280.74 554.68 2280.07 554.68C2279.73 554.232 2279.51 553.392 2279.39 552.16C2279.39 550.816 2279.62 549.92 2280.07 549.472C2283.43 549.584 2286.73 549.752 2289.98 549.976C2293.23 550.088 2296.42 550.144 2299.55 550.144ZM2408.16 617.344C2408.05 624.288 2409.23 630.112 2411.69 634.816C2414.15 639.52 2417.46 643.048 2421.6 645.4C2425.75 647.64 2430.23 648.76 2435.04 648.76C2438.07 648.76 2440.81 648.256 2443.27 647.248C2445.74 646.128 2447.81 644.896 2449.49 643.552C2451.17 642.096 2452.35 640.976 2453.02 640.192C2453.13 640.192 2453.35 640.416 2453.69 640.864C2454.14 641.2 2454.36 641.704 2454.36 642.376C2454.36 643.272 2454.03 644.28 2453.35 645.4C2452.35 646.968 2450.78 648.872 2448.65 651.112C2446.52 653.24 2443.83 655.144 2440.59 656.824C2437.34 658.504 2433.59 659.344 2429.33 659.344C2422.95 659.344 2417.29 657.832 2412.36 654.808C2407.43 651.784 2403.57 647.696 2400.77 642.544C2397.97 637.392 2396.57 631.624 2396.57 625.24C2396.57 619.752 2397.52 614.656 2399.43 609.952C2401.44 605.136 2404.02 600.992 2407.15 597.52C2410.4 593.936 2413.93 591.136 2417.74 589.12C2421.55 587.104 2425.24 586.096 2428.83 586.096C2433.75 586.096 2437.79 586.936 2440.92 588.616C2444.17 590.296 2446.69 592.368 2448.48 594.832C2450.39 597.296 2451.67 599.76 2452.35 602.224C2453.13 604.688 2453.52 606.76 2453.52 608.44C2453.52 610.792 2453.24 612.64 2452.68 613.984C2452.12 615.328 2451.06 616.056 2449.49 616.168C2448.48 616.28 2446.47 616.392 2443.44 616.504C2440.53 616.504 2437.17 616.56 2433.36 616.672C2429.55 616.784 2425.8 616.896 2422.11 617.008C2418.41 617.12 2415.27 617.232 2412.7 617.344C2410.12 617.344 2408.61 617.344 2408.16 617.344ZM2409 611.296H2435.71C2436.72 611.296 2437.56 611.016 2438.23 610.456C2439.02 609.896 2439.47 608.888 2439.58 607.432C2439.69 606.088 2439.3 604.184 2438.4 601.72C2437.51 599.256 2436.05 597.016 2434.03 595C2432.13 592.984 2429.5 591.976 2426.14 591.976C2422.67 591.976 2419.81 592.984 2417.57 595C2415.33 596.904 2413.54 599.144 2412.19 601.72C2410.96 604.184 2410.07 606.424 2409.51 608.44C2409.06 610.344 2408.89 611.296 2409 611.296ZM2501.56 586.432C2504.7 586.432 2507.61 587.44 2510.3 589.456C2513.1 591.472 2515.34 594.16 2517.02 597.52C2518.7 600.88 2519.54 604.688 2519.54 608.944V642.712C2519.54 644.84 2519.93 646.688 2520.71 648.256C2521.5 649.712 2522.79 650.44 2524.58 650.44C2526.15 650.44 2527.38 650.104 2528.27 649.432C2529.17 648.76 2529.73 648.368 2529.95 648.256C2530.18 648.256 2530.35 648.424 2530.46 648.76C2530.57 649.096 2530.63 649.376 2530.63 649.6C2530.63 650.832 2530.35 651.896 2529.79 652.792C2529.11 653.352 2527.99 654.136 2526.43 655.144C2524.97 656.152 2523.4 657.048 2521.72 657.832C2520.15 658.616 2518.75 659.008 2517.52 659.008C2515.17 659.008 2513.04 657.832 2511.14 655.48C2509.35 653.128 2508.17 650.72 2507.61 648.256C2507.16 648.704 2506.1 649.544 2504.42 650.776C2502.85 652.008 2501 653.296 2498.87 654.64C2496.75 655.872 2494.62 656.992 2492.49 658C2490.47 658.896 2488.74 659.344 2487.28 659.344C2481.91 659.344 2477.37 657.552 2473.67 653.968C2469.98 650.272 2468.13 645.792 2468.13 640.528C2468.13 637.168 2469.03 634.312 2470.82 631.96C2472.72 629.496 2474.57 627.928 2476.36 627.256C2479.5 626.136 2482.97 624.96 2486.78 623.728C2490.7 622.384 2494.34 621.096 2497.7 619.864C2501.06 618.632 2503.52 617.68 2505.09 617.008C2505.99 616.672 2506.55 616.28 2506.77 615.832C2506.99 615.272 2507.11 614.264 2507.11 612.808V608.44C2507.11 605.976 2506.49 603.568 2505.26 601.216C2504.03 598.752 2502.35 596.736 2500.22 595.168C2498.09 593.488 2495.68 592.648 2492.99 592.648C2490.19 592.648 2488.12 593.544 2486.78 595.336C2485.43 597.128 2484.48 599.648 2483.92 602.896C2482.91 608.16 2480.34 610.792 2476.19 610.792C2474.4 610.792 2473 610.064 2471.99 608.608C2471.1 607.152 2470.65 605.584 2470.65 603.904C2470.65 603.568 2470.76 602.952 2470.99 602.056C2471.21 601.048 2471.49 600.32 2471.83 599.872C2473.51 598.304 2475.91 596.456 2479.05 594.328C2482.19 592.2 2485.71 590.352 2489.63 588.784C2493.67 587.216 2497.64 586.432 2501.56 586.432ZM2492.83 650.44C2494.73 650.44 2496.8 649.992 2499.04 649.096C2501.28 648.2 2503.19 647.248 2504.75 646.24C2506.32 645.12 2507.11 644.28 2507.11 643.72V621.376C2504.98 622.048 2502.29 622.888 2499.04 623.896C2495.79 624.904 2493.39 625.688 2491.82 626.248C2488.91 627.368 2486.5 628.992 2484.59 631.12C2482.69 633.248 2481.74 635.88 2481.74 639.016C2481.74 642.04 2482.8 644.728 2484.93 647.08C2487.06 649.32 2489.69 650.44 2492.83 650.44ZM2584.04 586.264C2586.16 586.264 2588.18 586.768 2590.08 587.776C2591.99 588.672 2593.33 589.792 2594.12 591.136C2594.34 591.584 2594.51 592.2 2594.62 592.984C2594.73 593.768 2594.79 594.608 2594.79 595.504C2594.79 598.528 2594.06 600.712 2592.6 602.056C2591.26 603.4 2590.14 604.072 2589.24 604.072C2588.12 604.072 2587.06 603.68 2586.05 602.896C2585.04 602.112 2584.09 601.44 2583.2 600.88C2582.41 600.32 2581.57 599.872 2580.68 599.536C2579.89 599.088 2578.72 598.864 2577.15 598.864C2574.8 598.864 2572.61 599.872 2570.6 601.888C2568.69 603.792 2567.12 605.92 2565.89 608.272C2564.66 610.624 2564.04 612.416 2564.04 613.648V639.016C2564.04 641.48 2564.04 643.776 2564.04 645.904C2564.16 648.032 2564.44 649.768 2564.88 651.112C2565.11 651.672 2566.23 652.176 2568.24 652.624C2570.26 653.072 2572.39 653.408 2574.63 653.632C2576.87 653.744 2578.32 653.8 2579 653.8C2579.33 654.248 2579.5 655.032 2579.5 656.152C2579.61 657.272 2579.44 658.056 2579 658.504C2575.64 658.28 2572.22 658.112 2568.75 658C2565.28 657.776 2561.92 657.664 2558.67 657.664C2555.53 657.664 2552.51 657.776 2549.6 658C2546.68 658.112 2543.55 658.28 2540.19 658.504C2539.74 658.056 2539.52 657.272 2539.52 656.152C2539.63 655.032 2539.85 654.248 2540.19 653.8C2540.86 653.8 2541.98 653.744 2543.55 653.632C2545.23 653.408 2546.8 653.072 2548.25 652.624C2549.71 652.176 2550.49 651.672 2550.6 651.112C2551.05 649.768 2551.28 648.032 2551.28 645.904C2551.39 643.776 2551.44 641.48 2551.44 639.016V608.44C2551.44 607.32 2551.39 605.864 2551.28 604.072C2551.28 602.28 2551.05 600.88 2550.6 599.872C2550.27 598.864 2549.32 598.192 2547.75 597.856C2546.18 597.408 2544.61 597.184 2543.04 597.184C2541.48 597.072 2540.47 597.016 2540.02 597.016C2539.91 596.792 2539.8 596.12 2539.68 595C2539.57 593.88 2539.68 593.096 2540.02 592.648C2544.28 592.088 2548.42 591.248 2552.45 590.128C2556.48 589.008 2560.12 587.552 2563.37 585.76C2563.82 585.76 2564.21 586.096 2564.55 586.768C2565 587.44 2565.22 588 2565.22 588.448C2565.22 588.784 2565.11 590.072 2564.88 592.312C2564.66 594.552 2564.44 596.848 2564.21 599.2C2564.1 601.44 2564.04 602.896 2564.04 603.568C2564.04 603.904 2564.1 604.072 2564.21 604.072C2564.44 604.072 2564.6 604.016 2564.72 603.904C2565.84 601.552 2567.4 599.032 2569.42 596.344C2571.55 593.544 2573.9 591.192 2576.48 589.288C2579.05 587.272 2581.57 586.264 2584.04 586.264ZM2625.03 587.104H2646.2C2646.76 587.104 2647.04 587.72 2647.04 588.952C2647.04 590.632 2646.26 592.256 2644.69 593.824H2625.03V636.832C2625.03 645.792 2628.67 650.272 2635.95 650.272C2638.42 650.272 2640.66 649.768 2642.67 648.76C2644.69 647.752 2645.98 647.024 2646.54 646.576C2646.87 646.688 2647.04 647.024 2647.04 647.584C2647.04 648.816 2646.82 649.656 2646.37 650.104C2645.58 651 2644.35 652.176 2642.67 653.632C2641.1 655.088 2639.2 656.376 2636.96 657.496C2634.72 658.616 2632.26 659.176 2629.57 659.176C2626.77 659.176 2624.02 658.672 2621.34 657.664C2618.76 656.656 2616.63 654.864 2614.95 652.288C2613.27 649.712 2612.43 646.072 2612.43 641.368V593.824H2602.86C2602.63 593.824 2602.46 593.656 2602.35 593.32C2602.24 592.872 2602.18 592.536 2602.18 592.312C2602.18 592.088 2602.52 591.584 2603.19 590.8C2603.86 589.904 2604.54 589.064 2605.21 588.28C2605.99 587.496 2606.38 587.104 2606.38 587.104H2612.43V576.856C2613.55 575.624 2614.84 574.224 2616.3 572.656C2617.86 570.976 2619.26 569.464 2620.5 568.12C2621.73 566.664 2622.4 565.88 2622.51 565.768C2622.96 565.32 2623.46 565.096 2624.02 565.096C2624.7 565.096 2625.03 565.264 2625.03 565.6V587.104ZM2683.28 586.264C2686.53 586.264 2689.22 586.544 2691.35 587.104C2693.59 587.552 2696.5 588 2700.08 588.448C2700.64 590.912 2701.09 593.824 2701.43 597.184C2701.76 600.432 2701.99 603.512 2702.1 606.424C2702.1 606.984 2701.54 607.264 2700.42 607.264C2699.97 607.264 2699.47 607.208 2698.91 607.096C2698.46 606.984 2698.01 606.76 2697.56 606.424C2697 604.408 2696.05 602.224 2694.71 599.872C2693.48 597.52 2691.91 595.56 2690 593.992C2688.21 592.312 2686.14 591.472 2683.79 591.472C2679.87 591.472 2676.96 592.48 2675.05 594.496C2673.15 596.4 2672.2 598.808 2672.2 601.72C2672.2 604.52 2672.87 606.816 2674.21 608.608C2675.56 610.288 2677.29 611.8 2679.42 613.144C2681.66 614.376 2684.01 615.72 2686.48 617.176C2688.94 618.632 2691.63 620.256 2694.54 622.048C2697.45 623.84 2699.97 625.968 2702.1 628.432C2704.23 630.784 2705.29 633.696 2705.29 637.168C2705.29 641.536 2704.12 645.456 2701.76 648.928C2699.41 652.288 2696.33 654.976 2692.52 656.992C2688.72 658.896 2684.57 659.848 2680.09 659.848C2676.28 659.848 2673.04 659.456 2670.35 658.672C2667.66 658 2664.52 657.328 2660.94 656.656C2660.49 655.424 2660.04 653.744 2659.6 651.616C2659.15 649.488 2658.76 647.304 2658.42 645.064C2658.2 642.824 2658.08 641.032 2658.08 639.688C2658.98 639.016 2659.99 638.68 2661.11 638.68C2661.67 638.68 2662.12 638.792 2662.45 639.016C2663.12 641.256 2664.3 643.608 2665.98 646.072C2667.66 648.424 2669.73 650.44 2672.2 652.12C2674.66 653.688 2677.35 654.472 2680.26 654.472C2683.62 654.472 2686.42 653.464 2688.66 651.448C2690.9 649.432 2692.02 646.52 2692.02 642.712C2692.02 639.352 2691.01 636.664 2689 634.648C2686.98 632.52 2684.46 630.672 2681.44 629.104C2678.41 627.424 2675.28 625.688 2672.03 623.896C2668.78 621.992 2665.87 619.696 2663.29 617.008C2660.83 614.208 2659.6 610.624 2659.6 606.256C2659.6 602.224 2660.72 598.696 2662.96 595.672C2665.31 592.648 2668.28 590.352 2671.86 588.784C2675.44 587.104 2679.25 586.264 2683.28 586.264Z" fill="white"/>
<path d="M1125.04 278.036C1125.04 294.674 1121.23 309.338 1113.62 322.028C1106 334.436 1095.29 344.165 1081.47 351.215C1067.93 357.983 1052.14 361.367 1034.09 361.367C1031.84 361.367 1028.88 361.085 1025.21 360.521C1021.54 359.957 1018.58 359.111 1016.33 357.983C1015.76 357.419 1014.64 356.432 1012.94 355.022C1011.25 353.33 1010.41 351.215 1010.41 348.677C1010.41 346.985 1011.11 346.28 1012.52 346.562C1014.78 347.126 1017.17 347.831 1019.71 348.677C1022.25 349.241 1025.07 349.523 1028.17 349.523C1044.81 349.523 1058.77 344.024 1070.05 333.026C1081.33 321.746 1086.97 305.813 1086.97 285.227C1086.97 264.641 1081.33 248.144 1070.05 235.736C1058.77 223.328 1041.71 217.124 1018.87 217.124C1016.33 217.124 1012.38 217.265 1007.02 217.547C1001.95 217.829 998.984 218.957 998.138 220.931C997.01 223.469 996.305 227.84 996.023 234.044C996.023 239.966 996.023 246.029 996.023 252.233V428.201C996.023 434.405 996.023 440.186 996.023 445.544C996.305 450.902 997.01 455.273 998.138 458.657C998.702 460.067 1000.96 461.336 1004.91 462.464C1008.85 463.592 1012.94 464.438 1017.17 465.002C1021.69 465.284 1024.79 465.425 1026.48 465.425C1027.33 466.553 1027.75 468.527 1027.75 471.347C1028.03 474.167 1027.61 476.141 1026.48 477.269C1018.02 476.705 1009.84 476.282 1001.95 476C994.331 475.436 986.435 475.154 978.257 475.154C970.361 475.154 962.324 475.436 954.146 476C946.25 476.282 938.072 476.705 929.612 477.269C928.484 476.141 927.92 474.167 927.92 471.347C928.202 468.527 928.766 466.553 929.612 465.425C931.304 465.425 934.265 465.284 938.495 465.002C943.007 464.438 947.237 463.592 951.185 462.464C955.415 461.336 957.671 460.067 957.953 458.657C959.081 455.273 959.645 450.902 959.645 445.544C959.927 440.186 960.068 434.405 960.068 428.201V251.81C960.068 245.606 959.927 239.825 959.645 234.467C959.645 228.827 959.081 224.315 957.953 220.931C957.671 219.239 955.415 217.97 951.185 217.124C947.237 216.278 943.007 215.714 938.495 215.432C934.265 214.868 931.304 214.586 929.612 214.586C928.766 213.458 928.202 211.484 927.92 208.664C927.92 205.844 928.484 203.87 929.612 202.742C938.072 203.024 946.25 203.447 954.146 204.011C962.324 204.293 970.361 204.434 978.257 204.434C986.435 204.434 995.177 204.293 1004.48 204.011C1014.07 203.729 1024.93 203.588 1037.05 203.588C1051.72 203.588 1065.68 206.549 1078.93 212.471C1092.47 218.111 1103.47 226.43 1111.93 237.428C1120.67 248.426 1125.04 261.962 1125.04 278.036ZM1285.84 344.024C1285.84 343.742 1285.84 343.178 1285.84 342.332C1285.84 339.512 1285.7 336.128 1285.42 332.18C1285.14 327.95 1284.29 324.425 1282.88 321.605C1280.91 317.657 1277.24 315.26 1271.89 314.414C1266.53 313.568 1262.44 313.145 1259.62 313.145C1259.05 312.581 1258.63 311.03 1258.35 308.492C1258.35 305.672 1258.77 303.698 1259.62 302.57C1270.33 302.006 1280.63 301.019 1290.5 299.609C1300.37 298.199 1308.97 296.366 1316.3 294.11C1317.43 294.11 1318.42 295.52 1319.26 298.34C1320.11 301.16 1320.53 303.134 1320.53 304.262C1319.68 305.954 1318.98 309.338 1318.42 314.414C1318.13 319.49 1317.99 324.989 1317.99 330.911V417.626C1317.99 419.882 1318.13 424.394 1318.42 431.162C1318.7 437.648 1319.4 443.711 1320.53 449.351C1321.38 452.735 1324.48 454.709 1329.84 455.273C1335.48 455.837 1339.71 456.26 1342.53 456.542C1343.94 456.542 1344.78 456.542 1345.06 456.542C1345.63 456.824 1345.91 457.529 1345.91 458.657C1346.19 459.785 1346.33 460.631 1346.33 461.195C1346.33 461.477 1346.05 462.605 1345.49 464.579C1344.92 466.553 1344.08 467.54 1342.95 467.54C1335.9 467.822 1328.14 468.95 1319.68 470.924C1311.51 472.898 1304.46 474.731 1298.53 476.423C1292.61 478.397 1289.51 479.384 1289.23 479.384C1288.1 479.384 1287.25 478.538 1286.69 476.846C1286.13 475.436 1285.84 474.026 1285.84 472.616V453.581C1285.84 452.453 1285.7 451.889 1285.42 451.889C1285.14 451.607 1285 451.466 1285 451.466C1281.33 455.414 1276.26 459.644 1269.77 464.156C1263.28 468.386 1256.23 471.911 1248.62 474.731C1241.01 477.551 1233.67 478.961 1226.62 478.961C1215.63 478.961 1206.74 476.423 1199.98 471.347C1193.21 465.989 1187.99 459.221 1184.32 451.043C1180.66 442.583 1178.12 433.559 1176.71 423.971C1175.58 414.383 1175.02 405.218 1175.02 396.476V344.024C1175.02 341.204 1174.88 337.538 1174.6 333.026C1174.31 328.514 1173.33 324.707 1171.63 321.605C1169.66 317.657 1165.99 315.26 1160.64 314.414C1155.28 313.568 1151.19 313.145 1148.37 313.145C1147.81 312.581 1147.38 311.03 1147.1 308.492C1147.1 305.672 1147.52 303.698 1148.37 302.57C1159.09 302.006 1169.38 301.019 1179.25 299.609C1189.12 298.199 1197.72 296.366 1205.05 294.11C1206.18 294.11 1207.17 295.238 1208.01 297.494C1209.14 299.75 1209.7 301.442 1209.7 302.57C1208.86 304.262 1208.15 307.928 1207.59 313.568C1207.03 319.208 1206.74 324.989 1206.74 330.911V391.823C1206.74 413.819 1209.99 430.034 1216.47 440.468C1223.24 450.62 1233.82 455.696 1248.2 455.696C1254.4 455.696 1260.32 454.568 1265.96 452.312C1271.6 449.774 1276.26 446.672 1279.92 443.006C1283.87 439.34 1285.84 435.956 1285.84 432.854V344.024ZM1483.37 295.379C1488.72 295.379 1493.8 296.648 1498.59 299.186C1503.39 301.442 1506.77 304.262 1508.75 307.646C1509.31 308.774 1509.73 310.325 1510.01 312.299C1510.3 314.273 1510.44 316.388 1510.44 318.644C1510.44 326.258 1508.6 331.757 1504.94 335.141C1501.55 338.525 1498.73 340.217 1496.48 340.217C1493.66 340.217 1490.98 339.23 1488.44 337.256C1485.9 335.282 1483.51 333.59 1481.25 332.18C1479.28 330.77 1477.16 329.642 1474.91 328.796C1472.93 327.668 1469.97 327.104 1466.02 327.104C1460.1 327.104 1454.6 329.642 1449.53 334.718C1444.73 339.512 1440.78 344.87 1437.68 350.792C1434.58 356.714 1433.03 361.226 1433.03 364.328V428.201C1433.03 434.405 1433.03 440.186 1433.03 445.544C1433.31 450.902 1434.02 455.273 1435.14 458.657C1435.71 460.067 1438.53 461.336 1443.6 462.464C1448.68 463.592 1454.04 464.438 1459.68 465.002C1465.32 465.284 1468.98 465.425 1470.68 465.425C1471.52 466.553 1471.94 468.527 1471.94 471.347C1472.23 474.167 1471.8 476.141 1470.68 477.269C1462.22 476.705 1453.61 476.282 1444.87 476C1436.13 475.436 1427.67 475.154 1419.49 475.154C1411.6 475.154 1403.98 475.436 1396.65 476C1389.32 476.282 1381.42 476.705 1372.96 477.269C1371.83 476.141 1371.27 474.167 1371.27 471.347C1371.55 468.527 1372.12 466.553 1372.96 465.425C1374.65 465.425 1377.47 465.284 1381.42 465.002C1385.65 464.438 1389.6 463.592 1393.27 462.464C1396.93 461.336 1398.91 460.067 1399.19 458.657C1400.32 455.273 1400.88 450.902 1400.88 445.544C1401.16 440.186 1401.3 434.405 1401.3 428.201V351.215C1401.3 348.395 1401.16 344.729 1400.88 340.217C1400.88 335.705 1400.32 332.18 1399.19 329.642C1398.34 327.104 1395.95 325.412 1392 324.566C1388.05 323.438 1384.1 322.874 1380.15 322.874C1376.21 322.592 1373.67 322.451 1372.54 322.451C1372.26 321.887 1371.98 320.195 1371.69 317.375C1371.41 314.555 1371.69 312.581 1372.54 311.453C1383.26 310.043 1393.69 307.928 1403.84 305.108C1413.99 302.288 1423.16 298.622 1431.34 294.11C1432.46 294.11 1433.45 294.956 1434.3 296.648C1435.43 298.34 1435.99 299.75 1435.99 300.878C1435.99 301.724 1435.71 304.967 1435.14 310.607C1434.58 316.247 1434.02 322.028 1433.45 327.95C1433.17 333.59 1433.03 337.256 1433.03 338.948C1433.03 339.794 1433.17 340.217 1433.45 340.217C1434.02 340.217 1434.44 340.076 1434.72 339.794C1437.54 333.872 1441.49 327.527 1446.56 320.759C1451.92 313.709 1457.84 307.787 1464.33 302.993C1470.82 297.917 1477.16 295.379 1483.37 295.379ZM1564.63 373.634C1564.35 391.118 1567.31 405.782 1573.51 417.626C1579.72 429.47 1588.04 438.353 1598.47 444.275C1608.9 449.915 1620.18 452.735 1632.31 452.735C1639.92 452.735 1646.83 451.466 1653.04 448.928C1659.24 446.108 1664.46 443.006 1668.69 439.622C1672.92 435.956 1675.88 433.136 1677.57 431.162C1677.85 431.162 1678.42 431.726 1679.26 432.854C1680.39 433.7 1680.96 434.969 1680.96 436.661C1680.96 438.917 1680.11 441.455 1678.42 444.275C1675.88 448.223 1671.93 453.017 1666.57 458.657C1661.22 464.015 1654.45 468.809 1646.27 473.039C1638.09 477.269 1628.64 479.384 1617.93 479.384C1601.85 479.384 1587.61 475.577 1575.21 467.963C1562.8 460.349 1553.07 450.056 1546.02 437.084C1538.97 424.112 1535.44 409.589 1535.44 393.515C1535.44 379.697 1537.84 366.866 1542.63 355.022C1547.71 342.896 1554.2 332.462 1562.09 323.72C1570.27 314.696 1579.15 307.646 1588.74 302.57C1598.33 297.494 1607.64 294.956 1616.66 294.956C1629.07 294.956 1639.22 297.071 1647.12 301.301C1655.29 305.531 1661.64 310.748 1666.15 316.952C1670.94 323.156 1674.19 329.36 1675.88 335.564C1677.85 341.768 1678.84 346.985 1678.84 351.215C1678.84 357.137 1678.14 361.79 1676.73 365.174C1675.32 368.558 1672.64 370.391 1668.69 370.673C1666.15 370.955 1661.07 371.237 1653.46 371.519C1646.13 371.519 1637.67 371.66 1628.08 371.942C1618.49 372.224 1609.05 372.506 1599.74 372.788C1590.43 373.07 1582.54 373.352 1576.05 373.634C1569.57 373.634 1565.76 373.634 1564.63 373.634ZM1566.75 358.406H1634C1636.54 358.406 1638.66 357.701 1640.35 356.291C1642.32 354.881 1643.45 352.343 1643.73 348.677C1644.01 345.293 1643.03 340.499 1640.77 334.295C1638.51 328.091 1634.85 322.451 1629.77 317.375C1624.98 312.299 1618.35 309.761 1609.89 309.761C1601.15 309.761 1593.96 312.299 1588.32 317.375C1582.68 322.169 1578.17 327.809 1574.78 334.295C1571.68 340.499 1569.42 346.139 1568.01 351.215C1566.89 356.009 1566.46 358.406 1566.75 358.406ZM1954.19 203.588C1963.49 203.588 1973.08 204.716 1982.95 206.972C1992.82 208.946 2001.85 212.33 2010.02 217.124C2018.2 221.636 2024.83 227.84 2029.9 235.736C2034.98 243.632 2037.52 253.502 2037.52 265.346C2037.52 275.78 2034.98 285.227 2029.9 293.687C2025.11 302.147 2019.33 309.056 2012.56 314.414C2006.08 319.772 2000.44 323.438 1995.64 325.412C1994.8 325.976 1994.8 326.54 1995.64 327.104C2000.72 327.386 2006.64 329.078 2013.41 332.18C2020.18 335.282 2026.8 339.794 2033.29 345.716C2040.06 351.356 2045.56 358.265 2049.79 366.443C2054.02 374.621 2056.13 383.786 2056.13 393.938C2056.13 405.782 2054.02 416.78 2049.79 426.932C2045.84 437.084 2038.79 446.39 2028.64 454.85C2018.77 463.028 2005.79 468.809 1989.72 472.193C1973.65 475.295 1957.71 476.987 1941.92 477.269H1846.75C1845.62 476.141 1845.05 474.167 1845.05 471.347C1845.34 468.527 1845.9 466.553 1846.75 465.425C1848.44 465.425 1851.54 465.284 1856.05 465.002C1860.56 464.438 1864.79 463.592 1868.74 462.464C1872.97 461.336 1875.23 460.067 1875.51 458.657C1876.64 455.273 1877.2 450.902 1877.2 445.544C1877.48 440.186 1877.62 434.405 1877.62 428.201V251.81C1877.62 245.606 1877.48 239.825 1877.2 234.467C1877.2 228.827 1876.64 224.315 1875.51 220.931C1875.23 219.239 1872.97 217.97 1868.74 217.124C1864.79 216.278 1860.56 215.714 1856.05 215.432C1851.54 214.868 1848.44 214.586 1846.75 214.586C1845.9 213.458 1845.34 211.484 1845.05 208.664C1845.05 205.844 1845.62 203.87 1846.75 202.742C1855.21 203.024 1863.52 203.447 1871.7 204.011C1879.88 204.293 1887.92 204.434 1895.81 204.434C1903.99 204.434 1912.73 204.293 1922.04 204.011C1931.35 203.729 1942.06 203.588 1954.19 203.588ZM1913.58 338.948V428.624C1913.58 430.598 1913.58 433.7 1913.58 437.93C1913.86 441.878 1914.28 445.685 1914.85 449.351C1915.41 453.017 1916.12 455.414 1916.96 456.542C1920.07 459.926 1924.3 462.041 1929.65 462.887C1935.29 463.733 1941.92 464.156 1949.53 464.156C1959.97 464.156 1970.12 462.605 1979.99 459.503C1990.14 456.401 1998.6 450.479 2005.37 441.737C2012.14 432.713 2015.52 419.882 2015.52 403.244C2015.52 392.81 2013.55 382.799 2009.6 373.211C2005.65 363.341 1998.04 355.163 1986.76 348.677C1975.76 342.191 1959.69 338.948 1938.54 338.948H1913.58ZM1913.58 323.297H1947.84C1960.25 323.297 1970.26 320.9 1977.88 316.106C1985.49 311.312 1990.99 305.249 1994.37 297.917C1998.04 290.303 1999.87 282.548 1999.87 274.652C1999.87 256.322 1993.95 242.222 1982.11 232.352C1970.54 222.2 1955.17 217.124 1936 217.124C1933.46 217.124 1929.51 217.265 1924.15 217.547C1919.08 217.829 1916.12 218.957 1915.27 220.931C1914.43 223.187 1913.86 226.712 1913.58 231.506C1913.58 236.3 1913.58 241.376 1913.58 246.734C1913.58 247.862 1913.58 248.849 1913.58 249.695C1913.58 250.541 1913.58 251.387 1913.58 252.233V323.297ZM2109.95 231.083C2109.95 225.443 2111.93 220.649 2115.88 216.701C2120.11 212.471 2125.04 210.356 2130.68 210.356C2136.32 210.356 2141.11 212.471 2145.06 216.701C2149.29 220.649 2151.41 225.443 2151.41 231.083C2151.41 236.723 2149.29 241.658 2145.06 245.888C2141.11 249.836 2136.32 251.81 2130.68 251.81C2125.04 251.81 2120.11 249.836 2115.88 245.888C2111.93 241.658 2109.95 236.723 2109.95 231.083ZM2149.72 428.201C2149.72 434.405 2149.72 440.186 2149.72 445.544C2150 450.902 2150.7 455.273 2151.83 458.657C2152.39 460.067 2154.37 461.336 2157.75 462.464C2161.42 463.592 2165.23 464.438 2169.17 465.002C2173.12 465.284 2175.94 465.425 2177.63 465.425C2178.48 466.553 2178.9 468.527 2178.9 471.347C2179.18 474.167 2178.76 476.141 2177.63 477.269C2169.17 476.705 2161.7 476.282 2155.21 476C2149.01 475.436 2141.82 475.154 2133.64 475.154C2125.75 475.154 2118.55 475.436 2112.07 476C2105.58 476.282 2098.11 476.705 2089.65 477.269C2088.52 476.141 2087.96 474.167 2087.96 471.347C2088.24 468.527 2088.8 466.553 2089.65 465.425C2091.34 465.425 2094.16 465.284 2098.11 465.002C2102.34 464.438 2106.29 463.592 2109.95 462.464C2113.62 461.336 2115.59 460.067 2115.88 458.657C2117 455.273 2117.57 450.902 2117.57 445.544C2117.85 440.186 2117.99 434.405 2117.99 428.201V351.215C2117.99 348.395 2117.85 344.729 2117.57 340.217C2117.57 335.705 2117 332.18 2115.88 329.642C2115.03 327.104 2112.63 325.412 2108.68 324.566C2104.74 323.438 2100.79 322.874 2096.84 322.874C2092.89 322.592 2090.35 322.451 2089.23 322.451C2088.94 321.887 2088.66 320.195 2088.38 317.375C2088.1 314.555 2088.38 312.581 2089.23 311.453C2099.94 310.043 2110.38 307.928 2120.53 305.108C2130.68 302.288 2139.85 298.622 2148.02 294.11C2149.15 294.11 2150.14 294.956 2150.98 296.648C2152.11 298.34 2152.68 299.75 2152.68 300.878C2152.68 301.724 2152.39 304.121 2151.83 308.069C2151.27 312.017 2150.7 315.965 2150.14 319.913C2149.86 323.861 2149.72 326.54 2149.72 327.95V428.201ZM2295.1 294.533C2313.43 294.533 2329.08 298.481 2342.05 306.377C2355.31 314.273 2365.46 324.989 2372.51 338.525C2379.84 352.061 2383.51 367.43 2383.51 384.632C2383.51 402.398 2379.7 418.472 2372.08 432.854C2364.47 446.954 2354.04 458.234 2340.78 466.694C2327.53 474.872 2312.58 478.961 2295.94 478.961C2277.9 478.961 2262.1 475.013 2248.57 467.117C2235.31 458.939 2225.02 448.082 2217.69 434.546C2210.64 420.728 2207.11 405.218 2207.11 388.016C2207.11 370.25 2210.92 354.317 2218.54 340.217C2226.43 326.117 2237.01 314.978 2250.26 306.8C2263.51 298.622 2278.46 294.533 2295.1 294.533ZM2290.45 308.492C2278.88 308.492 2269.58 312.017 2262.53 319.067C2255.48 325.835 2250.4 334.718 2247.3 345.716C2244.2 356.432 2242.65 367.712 2242.65 379.556C2242.65 392.81 2244.76 406.064 2248.99 419.318C2253.5 432.572 2259.99 443.57 2268.45 452.312C2277.19 461.054 2287.77 465.425 2300.17 465.425C2312.02 465.425 2321.32 462.041 2328.09 455.273C2335.14 448.223 2340.22 439.199 2343.32 428.201C2346.42 417.203 2347.97 405.923 2347.97 394.361C2347.97 380.825 2345.72 367.571 2341.21 354.599C2336.69 341.345 2330.21 330.347 2321.75 321.605C2313.29 312.863 2302.85 308.492 2290.45 308.492ZM2441.49 245.465C2441.49 242.363 2441.35 238.697 2441.06 234.467C2441.06 229.955 2440.5 226.43 2439.37 223.892C2438.24 220.79 2435.14 218.816 2430.07 217.97C2425.27 217.124 2420.05 216.701 2414.41 216.701C2414.13 216.701 2413.85 215.009 2413.57 211.625C2413.57 207.959 2413.99 205.985 2414.84 205.703C2425.27 204.575 2435.42 202.601 2445.29 199.781C2455.16 196.679 2464.47 193.154 2473.21 189.206C2474.34 189.206 2475.33 190.052 2476.17 191.744C2477.3 193.154 2477.86 194.564 2477.86 195.974C2477.86 195.974 2477.02 199.076 2475.33 205.28C2473.92 211.484 2473.21 220.367 2473.21 231.929V428.201C2473.21 434.405 2473.21 440.186 2473.21 445.544C2473.49 450.902 2474.2 455.273 2475.33 458.657C2475.89 460.067 2477.86 461.336 2481.25 462.464C2484.91 463.592 2488.72 464.438 2492.67 465.002C2496.9 465.284 2499.86 465.425 2501.55 465.425C2502.4 466.553 2502.82 468.527 2502.82 471.347C2503.1 474.167 2502.68 476.141 2501.55 477.269C2493.09 476.705 2485.62 476.282 2479.13 476C2472.65 475.436 2465.32 475.154 2457.14 475.154C2449.24 475.154 2442.05 475.436 2435.56 476C2429.36 476.282 2422.03 476.705 2413.57 477.269C2412.44 476.141 2411.88 474.167 2411.88 471.347C2412.16 468.527 2412.72 466.553 2413.57 465.425C2415.26 465.425 2418.08 465.284 2422.03 465.002C2425.98 464.438 2429.78 463.592 2433.45 462.464C2437.12 461.336 2439.09 460.067 2439.37 458.657C2440.5 455.273 2441.06 450.902 2441.06 445.544C2441.35 440.186 2441.49 434.405 2441.49 428.201V245.465ZM2619.16 294.533C2637.49 294.533 2653.14 298.481 2666.11 306.377C2679.36 314.273 2689.52 324.989 2696.57 338.525C2703.9 352.061 2707.56 367.43 2707.56 384.632C2707.56 402.398 2703.76 418.472 2696.14 432.854C2688.53 446.954 2678.09 458.234 2664.84 466.694C2651.59 474.872 2636.64 478.961 2620 478.961C2601.95 478.961 2586.16 475.013 2572.63 467.117C2559.37 458.939 2549.08 448.082 2541.75 434.546C2534.7 420.728 2531.17 405.218 2531.17 388.016C2531.17 370.25 2534.98 354.317 2542.59 340.217C2550.49 326.117 2561.06 314.978 2574.32 306.8C2587.57 298.622 2602.52 294.533 2619.16 294.533ZM2614.5 308.492C2602.94 308.492 2593.64 312.017 2586.59 319.067C2579.54 325.835 2574.46 334.718 2571.36 345.716C2568.26 356.432 2566.7 367.712 2566.7 379.556C2566.7 392.81 2568.82 406.064 2573.05 419.318C2577.56 432.572 2584.05 443.57 2592.51 452.312C2601.25 461.054 2611.82 465.425 2624.23 465.425C2636.08 465.425 2645.38 462.041 2652.15 455.273C2659.2 448.223 2664.28 439.199 2667.38 428.201C2670.48 417.203 2672.03 405.923 2672.03 394.361C2672.03 380.825 2669.78 367.571 2665.26 354.599C2660.75 341.345 2654.27 330.347 2645.81 321.605C2637.35 312.863 2626.91 308.492 2614.5 308.492ZM2853.11 448.505C2864.1 448.505 2874.4 450.479 2883.98 454.427C2893.85 458.375 2901.75 463.592 2907.67 470.078C2913.88 476.564 2916.98 483.755 2916.98 491.651C2916.98 500.111 2914.02 508.853 2908.1 517.877C2902.46 526.901 2894.7 535.361 2884.83 543.257C2874.96 551.153 2863.54 557.498 2850.57 562.292C2837.6 567.368 2823.92 569.906 2809.54 569.906C2798.54 569.906 2787.54 568.073 2776.54 564.407C2765.54 560.741 2756.38 555.101 2749.05 547.487C2741.72 540.155 2738.05 530.849 2738.05 519.569C2738.05 513.365 2740.73 507.443 2746.09 501.803C2751.44 496.163 2757.65 491.087 2764.7 486.575C2771.75 482.063 2777.53 478.679 2782.04 476.423C2777.25 474.731 2772.17 472.193 2766.81 468.809C2761.74 465.425 2757.37 461.195 2753.7 456.119C2750.03 450.761 2748.2 444.698 2748.2 437.93C2750.74 435.11 2754.26 431.867 2758.78 428.201C2763.57 424.253 2768.22 420.587 2772.74 417.203C2777.53 413.819 2781.2 411.422 2783.73 410.012C2773.58 404.372 2765.26 396.758 2758.78 387.17C2752.57 377.3 2749.47 367.289 2749.47 357.137C2749.47 346.139 2752.43 335.987 2758.35 326.681C2764.56 317.093 2772.88 309.338 2783.31 303.416C2794.03 297.494 2806.01 294.533 2819.27 294.533C2828.29 294.533 2835.9 295.802 2842.11 298.34C2848.31 300.596 2853.25 302.429 2856.91 303.839C2860.86 305.249 2862.83 305.954 2862.83 305.954C2863.12 305.954 2864.24 306.236 2866.22 306.8L2910.63 300.455C2913.17 301.301 2914.44 302.711 2914.44 304.685C2914.44 306.377 2913.45 309.338 2911.48 313.568C2909.51 317.516 2907.39 320.195 2905.13 321.605C2901.75 321.323 2897.94 321.182 2893.71 321.182C2889.48 320.9 2885.82 320.618 2882.72 320.336C2879.61 320.054 2878.06 319.913 2878.06 319.913C2876.93 319.913 2876.37 320.336 2876.37 321.182C2877.5 322.31 2879.61 326.54 2882.72 333.872C2886.1 340.922 2887.79 349.241 2887.79 358.829C2887.79 368.417 2884.69 377.864 2878.49 387.17C2872.56 396.476 2864.24 404.231 2853.53 410.435C2843.09 416.357 2831.25 419.318 2818 419.318C2814.33 419.318 2810.1 418.895 2805.31 418.049C2800.51 417.203 2796.99 416.357 2794.73 415.511C2791.07 417.485 2787.54 420.164 2784.16 423.548C2781.05 426.932 2779.5 430.316 2779.5 433.7C2779.5 435.674 2781.62 438.635 2785.85 442.583C2790.08 446.531 2796.28 448.505 2804.46 448.505H2853.11ZM2834.07 477.692C2831.53 477.692 2827.3 477.692 2821.38 477.692C2815.74 477.974 2810.24 478.256 2804.88 478.538C2799.81 478.82 2796.71 479.243 2795.58 479.807C2791.07 482.627 2785.85 486.575 2779.93 491.651C2774 496.727 2771.04 501.944 2771.04 507.302C2771.04 520.556 2775.84 531.554 2785.43 540.296C2795.01 549.32 2808.55 553.832 2826.03 553.832C2835.62 553.832 2845.21 551.717 2854.8 547.487C2864.39 543.257 2872.42 537.758 2878.91 530.99C2885.39 524.222 2888.64 517.031 2888.64 509.417C2888.64 505.469 2886.8 500.957 2883.14 495.881C2879.47 491.087 2873.69 486.857 2865.8 483.191C2857.9 479.525 2847.32 477.692 2834.07 477.692ZM2817.57 307.223C2809.68 307.223 2803.05 309.62 2797.69 314.414C2792.33 319.208 2788.25 325.271 2785.43 332.603C2782.61 339.935 2781.2 347.549 2781.2 355.445C2781.2 363.905 2782.75 372.083 2785.85 379.979C2788.95 387.875 2793.46 394.361 2799.38 399.437C2805.31 404.513 2812.5 407.051 2820.96 407.051C2828.57 407.051 2834.92 404.795 2839.99 400.283C2845.35 395.489 2849.3 389.567 2851.84 382.517C2854.66 375.185 2856.07 367.712 2856.07 360.098C2856.07 351.356 2854.66 343.037 2851.84 335.141C2849.02 326.963 2844.79 320.336 2839.15 315.26C2833.51 309.902 2826.32 307.223 2817.57 307.223ZM2967.35 300.455C2975.24 300.455 2983.14 300.173 2991.04 299.609C2999.21 299.045 3005.14 298.622 3008.8 298.34C3009.37 299.468 3009.51 301.724 3009.23 305.108C3008.94 308.492 3008.24 310.184 3007.11 310.184C3006.26 310.184 3004.15 310.325 3000.77 310.607C2997.38 310.889 2994.14 311.594 2991.04 312.722C2988.22 313.568 2986.81 315.119 2986.81 317.375C2986.81 317.939 2986.95 318.503 2987.23 319.067L3031.22 430.739C3031.22 430.739 3032.35 427.778 3034.61 421.856C3036.86 415.652 3039.82 407.897 3043.49 398.591C3047.15 389.003 3051.1 378.71 3055.33 367.712C3059.56 356.714 3063.65 346.421 3067.6 336.833C3068.73 334.295 3069.43 331.898 3069.71 329.642C3070 327.104 3070.14 325.13 3070.14 323.72C3070.14 319.49 3067.88 316.247 3063.37 313.991C3059.14 311.453 3053.5 310.184 3046.45 310.184C3045.32 310.184 3044.76 308.492 3044.76 305.108C3044.76 301.724 3045.32 299.468 3046.45 298.34C3049.55 298.622 3054.35 299.045 3060.83 299.609C3067.6 300.173 3075.21 300.455 3083.67 300.455C3091.57 300.455 3098.2 300.173 3103.55 299.609C3109.19 299.045 3114.13 298.622 3118.36 298.34C3119.21 299.468 3119.35 301.724 3118.78 305.108C3118.5 308.492 3117.94 310.184 3117.09 310.184C3115.96 310.184 3113.57 310.607 3109.9 311.453C3106.52 312.299 3102.85 313.709 3098.9 315.683C3095.24 317.657 3092.56 320.618 3090.86 324.566C3084.66 339.23 3079.02 352.484 3073.94 364.328C3069.15 376.172 3064.36 387.734 3059.56 399.014C3055.05 410.012 3050.26 421.574 3045.18 433.7C3040.39 445.544 3035.03 458.798 3029.11 473.462C3024.03 486.152 3019.1 498.842 3014.3 511.532C3009.51 524.222 3003.44 536.066 2996.11 547.064C2991.6 554.114 2986.1 559.754 2979.62 563.984C2973.41 568.214 2966.93 570.329 2960.16 570.329C2956.21 570.329 2952.26 569.201 2948.31 566.945C2944.37 564.689 2942.39 559.895 2942.39 552.563C2942.39 550.025 2942.81 547.628 2943.66 545.372C2944.79 543.116 2945.92 541.424 2947.04 540.296C2953.53 540.296 2959.17 539.873 2963.96 539.027C2969.04 538.463 2973.83 536.489 2978.35 533.105C2983.14 529.721 2988.36 524.363 2994 517.031C2996.25 513.929 2998.79 509.276 3001.61 503.072C3004.43 497.15 3006.97 491.369 3009.23 485.729C3011.76 480.089 3013.17 476.564 3013.46 475.154C3005.84 455.414 2998.65 437.084 2991.88 420.164C2985.11 402.962 2978.21 386.183 2971.16 369.827C2964.39 353.189 2956.91 336.128 2948.74 318.644C2946.76 314.414 2943.24 312.017 2938.16 311.453C2933.09 310.607 2929.28 310.184 2926.74 310.184C2926.18 310.184 2925.89 310.184 2925.89 310.184C2925.61 310.184 2925.47 308.351 2925.47 304.685C2925.47 300.737 2925.61 298.622 2925.89 298.34C2929.84 298.622 2935.62 299.045 2943.24 299.609C2950.85 300.173 2958.89 300.455 2967.35 300.455Z" fill="white"/>
</svg>
