<svg width="2179" height="536" viewBox="0 0 2179 536" fill="none" xmlns="http://www.w3.org/2000/svg">
<mask id="path-1-outside-1_1918_3151" maskUnits="userSpaceOnUse" x="249.387" y="90.8162" width="250.348" height="239.337" fill="black">
<rect fill="white" x="249.387" y="90.8162" width="250.348" height="239.337"/>
<path d="M303.684 231.414C315.582 221.484 323.312 206.627 323.99 189.967L327.566 101.302C327.616 100.061 329.397 100.004 329.527 101.24L338.855 189.465C341.797 217.29 364.239 238.712 391.636 239.876L478.519 243.526C479.735 243.577 479.798 245.393 478.588 245.526L392.128 255.047C377.13 256.702 364.018 264.375 355.079 275.603"/>
</mask>
<path d="M303.684 231.414C315.582 221.484 323.312 206.627 323.99 189.967L327.566 101.302C327.616 100.061 329.397 100.004 329.527 101.24L338.855 189.465C341.797 217.29 364.239 238.712 391.636 239.876L478.519 243.526C479.735 243.577 479.798 245.393 478.588 245.526L392.128 255.047C377.13 256.702 364.018 264.375 355.079 275.603" fill="#01209F"/>
<path d="M323.99 189.967L329.888 190.23L329.888 190.228L323.99 189.967ZM338.855 189.465L332.987 190.097L332.987 190.097L338.855 189.465ZM391.636 239.876L391.403 245.892L391.406 245.892L391.636 239.876ZM392.128 255.047L391.481 249.061L391.48 249.061L392.128 255.047ZM478.519 243.526L478.748 237.51L478.519 243.526ZM478.588 245.526L479.235 251.512L478.588 245.526ZM307.428 236.077C320.58 225.101 329.138 208.664 329.888 190.23L318.093 189.704C317.487 204.589 310.584 217.868 299.94 226.752L307.428 236.077ZM329.888 190.228L333.464 101.562L321.668 101.041L318.093 189.706L329.888 190.228ZM323.659 101.872L332.987 190.097L344.724 188.833L335.396 100.607L323.659 101.872ZM332.987 190.097C336.243 220.892 361.083 244.603 391.403 245.892L391.869 233.861C367.394 232.821 347.352 213.689 344.724 188.833L332.987 190.097ZM391.406 245.892L478.289 249.541L478.748 237.51L391.866 233.861L391.406 245.892ZM477.942 239.54L391.481 249.061L392.774 261.032L479.235 251.512L477.942 239.54ZM391.48 249.061C374.886 250.893 360.379 259.386 350.494 271.801L359.664 279.405C367.658 269.364 379.373 262.512 392.776 261.032L391.48 249.061ZM478.289 249.541C472.206 249.286 471.889 240.207 477.942 239.54L479.235 251.512C487.708 250.579 487.264 237.868 478.748 237.51L478.289 249.541ZM333.464 101.562C333.214 107.768 324.311 108.047 323.659 101.872L335.396 100.607C334.482 91.9621 322.019 92.3537 321.668 101.041L333.464 101.562Z" fill="#01209F" mask="url(#path-1-outside-1_1918_3151)"/>
<path d="M388.901 253.175L390.207 250.482C392.008 251.395 392.59 253.282 392.35 254.777C392.111 256.258 391.003 257.81 389.089 258.14C364.823 262.323 346.491 283.296 345.455 308.696C345.455 308.696 345.455 308.697 345.455 308.697L341.857 397.36C341.656 402.322 334.532 402.532 334.011 397.59L324.705 309.372C324.705 309.372 324.705 309.372 324.705 309.372C321.923 283.034 300.699 262.752 274.757 261.65C274.757 261.65 274.757 261.65 274.756 261.65L187.889 257.988C183.02 257.783 182.756 250.521 187.597 249.988L187.922 252.953L187.597 249.988L274.071 240.477C298.769 237.76 318.044 217.803 320.61 192.885C320.817 190.883 322.305 189.662 323.746 189.343C325.203 189.02 327.112 189.518 328.093 191.35M388.901 253.175L328.093 191.35M388.901 253.175L390.207 250.482L348.405 229.261L328.093 191.35M388.901 253.175L325.504 192.784L328.093 191.35M188.108 251.973C188.11 251.974 188.112 251.974 188.114 251.974L188.108 251.973ZM322.916 194.221C322.915 194.22 322.915 194.219 322.914 194.219L323.47 193.911L322.914 194.219L322.916 194.221Z" fill="#01209F" stroke="#01209F" stroke-width="6"/>
<mask id="path-4-outside-2_1918_3151" maskUnits="userSpaceOnUse" x="51.0145" y="274.715" width="148.025" height="139.534" fill="black">
<rect fill="white" x="51.0145" y="274.715" width="148.025" height="139.534"/>
<path d="M83.4269 356.299C90.5331 350.452 95.1505 341.702 95.5554 331.891L97.4681 285.131C97.5185 283.897 99.3123 283.836 99.4439 285.064L104.434 331.596C106.191 347.982 119.595 360.597 135.959 361.282L182.431 363.207C183.657 363.258 183.715 365.063 182.495 365.195L136.252 370.216C127.294 371.191 119.463 375.71 114.124 382.321"/>
</mask>
<path d="M83.4269 356.299C90.5331 350.452 95.1505 341.702 95.5554 331.891L97.4681 285.131C97.5185 283.897 99.3123 283.836 99.4439 285.064L104.434 331.596C106.191 347.982 119.595 360.597 135.959 361.282L182.431 363.207C183.657 363.258 183.715 365.063 182.495 365.195L136.252 370.216C127.294 371.191 119.463 375.71 114.124 382.321" fill="#01209F"/>
<path d="M95.5554 331.891L101.498 332.135L101.498 332.133L95.5554 331.891ZM104.434 331.596L98.521 332.242L98.521 332.242L104.434 331.596ZM135.959 361.282L135.707 367.262L135.71 367.262L135.959 361.282ZM136.252 370.216L135.619 364.265L135.617 364.266L136.252 370.216ZM182.431 363.207L182.679 357.227L182.431 363.207ZM182.495 365.195L183.129 371.146L182.495 365.195ZM97.4681 285.131L91.5259 284.889L97.4681 285.131ZM87.1896 360.932C95.5659 354.039 101.02 343.713 101.498 332.135L89.6134 331.647C89.2813 339.691 85.5003 346.865 79.6642 351.667L87.1896 360.932ZM101.498 332.133L103.41 285.373L91.5259 284.889L89.6133 331.649L101.498 332.133ZM93.531 285.71L98.521 332.242L110.347 330.949L105.357 284.417L93.531 285.71ZM98.521 332.242C100.594 351.575 116.407 366.453 135.707 367.262L136.21 355.303C122.782 354.74 111.788 344.389 110.347 330.949L98.521 332.242ZM135.71 367.262L182.182 369.187L182.679 357.227L136.207 355.302L135.71 367.262ZM181.861 359.245L135.619 364.265L136.886 376.166L183.129 371.146L181.861 359.245ZM135.617 364.266C125.051 365.416 115.807 370.751 109.51 378.549L118.738 386.094C123.12 380.668 129.538 376.966 136.888 376.166L135.617 364.266ZM182.182 369.187C176.053 368.933 175.761 359.907 181.861 359.245L183.129 371.146C191.668 370.219 191.26 357.582 182.679 357.227L182.182 369.187ZM103.41 285.373C103.158 291.541 94.1892 291.848 93.531 285.71L105.357 284.417C104.435 275.825 91.8791 276.254 91.5259 284.889L103.41 285.373Z" fill="#01209F" mask="url(#path-4-outside-2_1918_3151)"/>
<path d="M20.0092 371.387L19.903 370.406L20.0092 371.387L20.0118 371.387C20.0109 371.387 20.0101 371.387 20.0092 371.387ZM99.771 333.399L97.1764 334.823L99.771 333.399C98.7668 331.551 96.821 331.107 95.3985 331.406C93.9947 331.702 92.4626 332.838 92.1699 334.807L95.0847 335.249L92.1699 334.807C90.165 348.289 79.3522 358.932 65.6189 360.421C65.6188 360.421 65.6188 360.421 65.6188 360.421L19.3647 365.437C14.4852 365.967 14.7309 373.186 19.6353 373.389L66.1001 375.321C66.1004 375.321 66.1007 375.321 66.1009 375.321C80.998 375.945 93.1857 387.429 94.7832 402.34L99.7612 448.867C100.287 453.777 107.463 453.547 107.666 448.614L109.591 401.855C110.168 387.906 120.09 376.315 133.403 373.475C135.305 373.069 136.35 371.502 136.572 370.076C136.797 368.631 136.254 366.734 134.415 365.814L111.024 354.107L99.771 333.399Z" fill="#01209F" stroke="#01209F" stroke-width="6"/>
<path d="M740.33 200.26C740.33 212.257 737.585 222.83 732.095 231.98C726.605 240.927 718.878 247.942 708.915 253.025C699.155 257.905 687.768 260.345 674.755 260.345C673.128 260.345 670.993 260.142 668.35 259.735C665.707 259.328 663.572 258.718 661.945 257.905C661.538 257.498 660.725 256.787 659.505 255.77C658.285 254.55 657.675 253.025 657.675 251.195C657.675 249.975 658.183 249.467 659.2 249.67C660.827 250.077 662.555 250.585 664.385 251.195C666.215 251.602 668.248 251.805 670.485 251.805C682.482 251.805 692.547 247.84 700.68 239.91C708.813 231.777 712.88 220.288 712.88 205.445C712.88 190.602 708.813 178.707 700.68 169.76C692.547 160.813 680.245 156.34 663.775 156.34C661.945 156.34 659.098 156.442 655.235 156.645C651.575 156.848 649.44 157.662 648.83 159.085C648.017 160.915 647.508 164.067 647.305 168.54C647.305 172.81 647.305 177.182 647.305 181.655V308.535C647.305 313.008 647.305 317.177 647.305 321.04C647.508 324.903 648.017 328.055 648.83 330.495C649.237 331.512 650.863 332.427 653.71 333.24C656.557 334.053 659.505 334.663 662.555 335.07C665.808 335.273 668.045 335.375 669.265 335.375C669.875 336.188 670.18 337.612 670.18 339.645C670.383 341.678 670.078 343.102 669.265 343.915C663.165 343.508 657.268 343.203 651.575 343C646.085 342.593 640.392 342.39 634.495 342.39C628.802 342.39 623.007 342.593 617.11 343C611.417 343.203 605.52 343.508 599.42 343.915C598.607 343.102 598.2 341.678 598.2 339.645C598.403 337.612 598.81 336.188 599.42 335.375C600.64 335.375 602.775 335.273 605.825 335.07C609.078 334.663 612.128 334.053 614.975 333.24C618.025 332.427 619.652 331.512 619.855 330.495C620.668 328.055 621.075 324.903 621.075 321.04C621.278 317.177 621.38 313.008 621.38 308.535V181.35C621.38 176.877 621.278 172.708 621.075 168.845C621.075 164.778 620.668 161.525 619.855 159.085C619.652 157.865 618.025 156.95 614.975 156.34C612.128 155.73 609.078 155.323 605.825 155.12C602.775 154.713 600.64 154.51 599.42 154.51C598.81 153.697 598.403 152.273 598.2 150.24C598.2 148.207 598.607 146.783 599.42 145.97C605.52 146.173 611.417 146.478 617.11 146.885C623.007 147.088 628.802 147.19 634.495 147.19C640.392 147.19 646.695 147.088 653.405 146.885C660.318 146.682 668.147 146.58 676.89 146.58C687.463 146.58 697.528 148.715 707.085 152.985C716.845 157.052 724.775 163.05 730.875 170.98C737.178 178.91 740.33 188.67 740.33 200.26ZM856.278 247.84C856.278 247.637 856.278 247.23 856.278 246.62C856.278 244.587 856.176 242.147 855.973 239.3C855.769 236.25 855.159 233.708 854.143 231.675C852.719 228.828 850.076 227.1 846.213 226.49C842.349 225.88 839.401 225.575 837.368 225.575C836.961 225.168 836.656 224.05 836.453 222.22C836.453 220.187 836.758 218.763 837.368 217.95C845.094 217.543 852.516 216.832 859.633 215.815C866.749 214.798 872.951 213.477 878.238 211.85C879.051 211.85 879.763 212.867 880.373 214.9C880.983 216.933 881.288 218.357 881.288 219.17C880.678 220.39 880.169 222.83 879.763 226.49C879.559 230.15 879.458 234.115 879.458 238.385V300.91C879.458 302.537 879.559 305.79 879.763 310.67C879.966 315.347 880.474 319.718 881.288 323.785C881.898 326.225 884.134 327.648 887.998 328.055C892.064 328.462 895.114 328.767 897.148 328.97C898.164 328.97 898.774 328.97 898.978 328.97C899.384 329.173 899.588 329.682 899.588 330.495C899.791 331.308 899.893 331.918 899.893 332.325C899.893 332.528 899.689 333.342 899.283 334.765C898.876 336.188 898.266 336.9 897.453 336.9C892.369 337.103 886.778 337.917 880.678 339.34C874.781 340.763 869.698 342.085 865.428 343.305C861.158 344.728 858.921 345.44 858.718 345.44C857.904 345.44 857.294 344.83 856.888 343.61C856.481 342.593 856.278 341.577 856.278 340.56V326.835C856.278 326.022 856.176 325.615 855.973 325.615C855.769 325.412 855.668 325.31 855.668 325.31C853.024 328.157 849.364 331.207 844.688 334.46C840.011 337.51 834.928 340.052 829.438 342.085C823.948 344.118 818.661 345.135 813.578 345.135C805.648 345.135 799.243 343.305 794.363 339.645C789.483 335.782 785.721 330.902 783.078 325.005C780.434 318.905 778.604 312.398 777.588 305.485C776.774 298.572 776.368 291.963 776.368 285.66V247.84C776.368 245.807 776.266 243.163 776.063 239.91C775.859 236.657 775.148 233.912 773.928 231.675C772.504 228.828 769.861 227.1 765.998 226.49C762.134 225.88 759.186 225.575 757.153 225.575C756.746 225.168 756.441 224.05 756.238 222.22C756.238 220.187 756.543 218.763 757.153 217.95C764.879 217.543 772.301 216.832 779.418 215.815C786.534 214.798 792.736 213.477 798.023 211.85C798.836 211.85 799.548 212.663 800.158 214.29C800.971 215.917 801.378 217.137 801.378 217.95C800.768 219.17 800.259 221.813 799.853 225.88C799.446 229.947 799.243 234.115 799.243 238.385V282.305C799.243 298.165 801.581 309.857 806.258 317.38C811.138 324.7 818.763 328.36 829.133 328.36C833.606 328.36 837.876 327.547 841.943 325.92C846.009 324.09 849.364 321.853 852.008 319.21C854.854 316.567 856.278 314.127 856.278 311.89V247.84ZM998.698 212.765C1002.56 212.765 1006.22 213.68 1009.68 215.51C1013.14 217.137 1015.58 219.17 1017 221.61C1017.41 222.423 1017.71 223.542 1017.91 224.965C1018.12 226.388 1018.22 227.913 1018.22 229.54C1018.22 235.03 1016.9 238.995 1014.25 241.435C1011.81 243.875 1009.78 245.095 1008.15 245.095C1006.12 245.095 1004.19 244.383 1002.36 242.96C1000.53 241.537 998.8 240.317 997.173 239.3C995.75 238.283 994.225 237.47 992.598 236.86C991.175 236.047 989.04 235.64 986.193 235.64C981.923 235.64 977.958 237.47 974.298 241.13C970.842 244.587 967.995 248.45 965.758 252.72C963.522 256.99 962.403 260.243 962.403 262.48V308.535C962.403 313.008 962.403 317.177 962.403 321.04C962.607 324.903 963.115 328.055 963.928 330.495C964.335 331.512 966.368 332.427 970.028 333.24C973.688 334.053 977.552 334.663 981.618 335.07C985.685 335.273 988.328 335.375 989.548 335.375C990.158 336.188 990.463 337.612 990.463 339.645C990.667 341.678 990.362 343.102 989.548 343.915C983.448 343.508 977.247 343.203 970.943 343C964.64 342.593 958.54 342.39 952.643 342.39C946.95 342.39 941.46 342.593 936.173 343C930.887 343.203 925.193 343.508 919.093 343.915C918.28 343.102 917.873 341.678 917.873 339.645C918.077 337.612 918.483 336.188 919.093 335.375C920.313 335.375 922.347 335.273 925.193 335.07C928.243 334.663 931.09 334.053 933.733 333.24C936.377 332.427 937.8 331.512 938.003 330.495C938.817 328.055 939.223 324.903 939.223 321.04C939.427 317.177 939.528 313.008 939.528 308.535V253.025C939.528 250.992 939.427 248.348 939.223 245.095C939.223 241.842 938.817 239.3 938.003 237.47C937.393 235.64 935.665 234.42 932.818 233.81C929.972 232.997 927.125 232.59 924.278 232.59C921.432 232.387 919.602 232.285 918.788 232.285C918.585 231.878 918.382 230.658 918.178 228.625C917.975 226.592 918.178 225.168 918.788 224.355C926.515 223.338 934.038 221.813 941.358 219.78C948.678 217.747 955.287 215.103 961.183 211.85C961.997 211.85 962.708 212.46 963.318 213.68C964.132 214.9 964.538 215.917 964.538 216.73C964.538 217.34 964.335 219.678 963.928 223.745C963.522 227.812 963.115 231.98 962.708 236.25C962.505 240.317 962.403 242.96 962.403 244.18C962.403 244.79 962.505 245.095 962.708 245.095C963.115 245.095 963.42 244.993 963.623 244.79C965.657 240.52 968.503 235.945 972.163 231.065C976.027 225.982 980.297 221.712 984.973 218.255C989.65 214.595 994.225 212.765 998.698 212.765ZM1057.29 269.19C1057.09 281.797 1059.23 292.37 1063.7 300.91C1068.17 309.45 1074.17 315.855 1081.69 320.125C1089.22 324.192 1097.35 326.225 1106.09 326.225C1111.58 326.225 1116.57 325.31 1121.04 323.48C1125.51 321.447 1129.27 319.21 1132.32 316.77C1135.37 314.127 1137.51 312.093 1138.73 310.67C1138.93 310.67 1139.34 311.077 1139.95 311.89C1140.76 312.5 1141.17 313.415 1141.17 314.635C1141.17 316.262 1140.56 318.092 1139.34 320.125C1137.51 322.972 1134.66 326.428 1130.8 330.495C1126.94 334.358 1122.06 337.815 1116.16 340.865C1110.26 343.915 1103.45 345.44 1095.72 345.44C1084.13 345.44 1073.87 342.695 1064.92 337.205C1055.97 331.715 1048.96 324.293 1043.87 314.94C1038.79 305.587 1036.25 295.115 1036.25 283.525C1036.25 273.562 1037.98 264.31 1041.43 255.77C1045.09 247.027 1049.77 239.503 1055.46 233.2C1061.36 226.693 1067.77 221.61 1074.68 217.95C1081.59 214.29 1088.3 212.46 1094.81 212.46C1103.76 212.46 1111.08 213.985 1116.77 217.035C1122.67 220.085 1127.24 223.847 1130.49 228.32C1133.95 232.793 1136.29 237.267 1137.51 241.74C1138.93 246.213 1139.64 249.975 1139.64 253.025C1139.64 257.295 1139.14 260.65 1138.12 263.09C1137.1 265.53 1135.17 266.852 1132.32 267.055C1130.49 267.258 1126.83 267.462 1121.34 267.665C1116.06 267.665 1109.96 267.767 1103.04 267.97C1096.13 268.173 1089.32 268.377 1082.61 268.58C1075.9 268.783 1070.21 268.987 1065.53 269.19C1060.85 269.19 1058.11 269.19 1057.29 269.19ZM1058.82 258.21H1107.31C1109.14 258.21 1110.67 257.702 1111.89 256.685C1113.31 255.668 1114.13 253.838 1114.33 251.195C1114.53 248.755 1113.82 245.298 1112.19 240.825C1110.57 236.352 1107.92 232.285 1104.26 228.625C1100.81 224.965 1096.03 223.135 1089.93 223.135C1083.63 223.135 1078.44 224.965 1074.37 228.625C1070.31 232.082 1067.05 236.148 1064.61 240.825C1062.38 245.298 1060.75 249.365 1059.73 253.025C1058.92 256.482 1058.62 258.21 1058.82 258.21ZM1338.18 146.58C1344.89 146.58 1351.8 147.393 1358.92 149.02C1366.04 150.443 1372.54 152.883 1378.44 156.34C1384.34 159.593 1389.12 164.067 1392.78 169.76C1396.44 175.453 1398.27 182.57 1398.27 191.11C1398.27 198.633 1396.44 205.445 1392.78 211.545C1389.32 217.645 1385.15 222.627 1380.27 226.49C1375.59 230.353 1371.53 232.997 1368.07 234.42C1367.46 234.827 1367.46 235.233 1368.07 235.64C1371.73 235.843 1376 237.063 1380.88 239.3C1385.76 241.537 1390.54 244.79 1395.22 249.06C1400.1 253.127 1404.06 258.108 1407.11 264.005C1410.16 269.902 1411.69 276.51 1411.69 283.83C1411.69 292.37 1410.16 300.3 1407.11 307.62C1404.26 314.94 1399.18 321.65 1391.86 327.75C1384.74 333.647 1375.39 337.815 1363.8 340.255C1352.21 342.492 1340.72 343.712 1329.34 343.915H1260.71C1259.9 343.102 1259.49 341.678 1259.49 339.645C1259.69 337.612 1260.1 336.188 1260.71 335.375C1261.93 335.375 1264.17 335.273 1267.42 335.07C1270.67 334.663 1273.72 334.053 1276.57 333.24C1279.62 332.427 1281.25 331.512 1281.45 330.495C1282.26 328.055 1282.67 324.903 1282.67 321.04C1282.87 317.177 1282.98 313.008 1282.98 308.535V181.35C1282.98 176.877 1282.87 172.708 1282.67 168.845C1282.67 164.778 1282.26 161.525 1281.45 159.085C1281.25 157.865 1279.62 156.95 1276.57 156.34C1273.72 155.73 1270.67 155.323 1267.42 155.12C1264.17 154.713 1261.93 154.51 1260.71 154.51C1260.1 153.697 1259.69 152.273 1259.49 150.24C1259.49 148.207 1259.9 146.783 1260.71 145.97C1266.81 146.173 1272.81 146.478 1278.71 146.885C1284.6 147.088 1290.4 147.19 1296.09 147.19C1301.99 147.19 1308.29 147.088 1315 146.885C1321.71 146.682 1329.44 146.58 1338.18 146.58ZM1308.9 244.18V308.84C1308.9 310.263 1308.9 312.5 1308.9 315.55C1309.1 318.397 1309.41 321.142 1309.82 323.785C1310.22 326.428 1310.73 328.157 1311.34 328.97C1313.58 331.41 1316.63 332.935 1320.49 333.545C1324.56 334.155 1329.34 334.46 1334.83 334.46C1342.35 334.46 1349.67 333.342 1356.79 331.105C1364.11 328.868 1370.21 324.598 1375.09 318.295C1379.97 311.788 1382.41 302.537 1382.41 290.54C1382.41 283.017 1380.98 275.798 1378.14 268.885C1375.29 261.768 1369.8 255.872 1361.67 251.195C1353.74 246.518 1342.15 244.18 1326.9 244.18H1308.9ZM1308.9 232.895H1333.61C1342.55 232.895 1349.77 231.167 1355.26 227.71C1360.75 224.253 1364.72 219.882 1367.16 214.595C1369.8 209.105 1371.12 203.513 1371.12 197.82C1371.12 184.603 1366.85 174.437 1358.31 167.32C1349.97 160 1338.89 156.34 1325.07 156.34C1323.24 156.34 1320.39 156.442 1316.53 156.645C1312.87 156.848 1310.73 157.662 1310.12 159.085C1309.51 160.712 1309.1 163.253 1308.9 166.71C1308.9 170.167 1308.9 173.827 1308.9 177.69C1308.9 178.503 1308.9 179.215 1308.9 179.825C1308.9 180.435 1308.9 181.045 1308.9 181.655V232.895ZM1450.49 166.405C1450.49 162.338 1451.92 158.882 1454.76 156.035C1457.81 152.985 1461.37 151.46 1465.44 151.46C1469.51 151.46 1472.96 152.985 1475.81 156.035C1478.86 158.882 1480.38 162.338 1480.38 166.405C1480.38 170.472 1478.86 174.03 1475.81 177.08C1472.96 179.927 1469.51 181.35 1465.44 181.35C1461.37 181.35 1457.81 179.927 1454.76 177.08C1451.92 174.03 1450.49 170.472 1450.49 166.405ZM1479.16 308.535C1479.16 313.008 1479.16 317.177 1479.16 321.04C1479.37 324.903 1479.88 328.055 1480.69 330.495C1481.1 331.512 1482.52 332.427 1484.96 333.24C1487.6 334.053 1490.35 334.663 1493.19 335.07C1496.04 335.273 1498.07 335.375 1499.29 335.375C1499.9 336.188 1500.21 337.612 1500.21 339.645C1500.41 341.678 1500.11 343.102 1499.29 343.915C1493.19 343.508 1487.81 343.203 1483.13 343C1478.66 342.593 1473.47 342.39 1467.57 342.39C1461.88 342.39 1456.7 342.593 1452.02 343C1447.34 343.203 1441.95 343.508 1435.85 343.915C1435.04 343.102 1434.63 341.678 1434.63 339.645C1434.84 337.612 1435.24 336.188 1435.85 335.375C1437.07 335.375 1439.11 335.273 1441.95 335.07C1445 334.663 1447.85 334.053 1450.49 333.24C1453.14 332.427 1454.56 331.512 1454.76 330.495C1455.58 328.055 1455.98 324.903 1455.98 321.04C1456.19 317.177 1456.29 313.008 1456.29 308.535V253.025C1456.29 250.992 1456.19 248.348 1455.98 245.095C1455.98 241.842 1455.58 239.3 1454.76 237.47C1454.15 235.64 1452.43 234.42 1449.58 233.81C1446.73 232.997 1443.89 232.59 1441.04 232.59C1438.19 232.387 1436.36 232.285 1435.55 232.285C1435.35 231.878 1435.14 230.658 1434.94 228.625C1434.74 226.592 1434.94 225.168 1435.55 224.355C1443.28 223.338 1450.8 221.813 1458.12 219.78C1465.44 217.747 1472.05 215.103 1477.94 211.85C1478.76 211.85 1479.47 212.46 1480.08 213.68C1480.89 214.9 1481.3 215.917 1481.3 216.73C1481.3 217.34 1481.1 219.068 1480.69 221.915C1480.28 224.762 1479.88 227.608 1479.47 230.455C1479.27 233.302 1479.16 235.233 1479.16 236.25V308.535ZM1583.99 212.155C1597.21 212.155 1608.49 215.002 1617.85 220.695C1627.4 226.388 1634.72 234.115 1639.81 243.875C1645.09 253.635 1647.74 264.717 1647.74 277.12C1647.74 289.93 1644.99 301.52 1639.5 311.89C1634.01 322.057 1626.49 330.19 1616.93 336.29C1607.37 342.187 1596.6 345.135 1584.6 345.135C1571.59 345.135 1560.2 342.288 1550.44 336.595C1540.88 330.698 1533.46 322.87 1528.18 313.11C1523.09 303.147 1520.55 291.963 1520.55 279.56C1520.55 266.75 1523.3 255.262 1528.79 245.095C1534.48 234.928 1542.1 226.897 1551.66 221C1561.22 215.103 1571.99 212.155 1583.99 212.155ZM1580.64 222.22C1572.3 222.22 1565.59 224.762 1560.51 229.845C1555.42 234.725 1551.76 241.13 1549.53 249.06C1547.29 256.787 1546.17 264.92 1546.17 273.46C1546.17 283.017 1547.7 292.573 1550.75 302.13C1554 311.687 1558.68 319.617 1564.78 325.92C1571.08 332.223 1578.7 335.375 1587.65 335.375C1596.19 335.375 1602.9 332.935 1607.78 328.055C1612.86 322.972 1616.52 316.465 1618.76 308.535C1621 300.605 1622.12 292.472 1622.12 284.135C1622.12 274.375 1620.49 264.818 1617.24 255.465C1613.98 245.908 1609.31 237.978 1603.21 231.675C1597.11 225.372 1589.58 222.22 1580.64 222.22ZM1689.54 176.775C1689.54 174.538 1689.44 171.895 1689.24 168.845C1689.24 165.592 1688.83 163.05 1688.02 161.22C1687.2 158.983 1684.97 157.56 1681.31 156.95C1677.85 156.34 1674.09 156.035 1670.02 156.035C1669.82 156.035 1669.62 154.815 1669.41 152.375C1669.41 149.732 1669.72 148.308 1670.33 148.105C1677.85 147.292 1685.17 145.868 1692.29 143.835C1699.4 141.598 1706.11 139.057 1712.42 136.21C1713.23 136.21 1713.94 136.82 1714.55 138.04C1715.37 139.057 1715.77 140.073 1715.77 141.09C1715.77 141.09 1715.16 143.327 1713.94 147.8C1712.93 152.273 1712.42 158.678 1712.42 167.015V308.535C1712.42 313.008 1712.42 317.177 1712.42 321.04C1712.62 324.903 1713.13 328.055 1713.94 330.495C1714.35 331.512 1715.77 332.427 1718.21 333.24C1720.86 334.053 1723.6 334.663 1726.45 335.07C1729.5 335.273 1731.63 335.375 1732.85 335.375C1733.46 336.188 1733.77 337.612 1733.77 339.645C1733.97 341.678 1733.67 343.102 1732.85 343.915C1726.75 343.508 1721.36 343.203 1716.69 343C1712.01 342.593 1706.72 342.39 1700.83 342.39C1695.13 342.39 1689.95 342.593 1685.27 343C1680.8 343.203 1675.51 343.508 1669.41 343.915C1668.6 343.102 1668.19 341.678 1668.19 339.645C1668.4 337.612 1668.8 336.188 1669.41 335.375C1670.63 335.375 1672.67 335.273 1675.51 335.07C1678.36 334.663 1681.1 334.053 1683.75 333.24C1686.39 332.427 1687.81 331.512 1688.02 330.495C1688.83 328.055 1689.24 324.903 1689.24 321.04C1689.44 317.177 1689.54 313.008 1689.54 308.535V176.775ZM1817.65 212.155C1830.87 212.155 1842.15 215.002 1851.5 220.695C1861.06 226.388 1868.38 234.115 1873.46 243.875C1878.75 253.635 1881.39 264.717 1881.39 277.12C1881.39 289.93 1878.65 301.52 1873.16 311.89C1867.67 322.057 1860.15 330.19 1850.59 336.29C1841.03 342.187 1830.26 345.135 1818.26 345.135C1805.25 345.135 1793.86 342.288 1784.1 336.595C1774.54 330.698 1767.12 322.87 1761.83 313.11C1756.75 303.147 1754.21 291.963 1754.21 279.56C1754.21 266.75 1756.95 255.262 1762.44 245.095C1768.14 234.928 1775.76 226.897 1785.32 221C1794.88 215.103 1805.65 212.155 1817.65 212.155ZM1814.29 222.22C1805.96 222.22 1799.25 224.762 1794.16 229.845C1789.08 234.725 1785.42 241.13 1783.18 249.06C1780.95 256.787 1779.83 264.92 1779.83 273.46C1779.83 283.017 1781.35 292.573 1784.4 302.13C1787.66 311.687 1792.33 319.617 1798.43 325.92C1804.74 332.223 1812.36 335.375 1821.31 335.375C1829.85 335.375 1836.56 332.935 1841.44 328.055C1846.52 322.972 1850.18 316.465 1852.42 308.535C1854.66 300.605 1855.77 292.472 1855.77 284.135C1855.77 274.375 1854.15 264.818 1850.89 255.465C1847.64 245.908 1842.96 237.978 1836.86 231.675C1830.76 225.372 1823.24 222.22 1814.29 222.22ZM1986.34 323.175C1994.27 323.175 2001.69 324.598 2008.6 327.445C2015.72 330.292 2021.41 334.053 2025.68 338.73C2030.15 343.407 2032.39 348.592 2032.39 354.285C2032.39 360.385 2030.26 366.688 2025.99 373.195C2021.92 379.702 2016.33 385.802 2009.21 391.495C2002.09 397.188 1993.86 401.763 1984.51 405.22C1975.15 408.88 1965.29 410.71 1954.92 410.71C1946.99 410.71 1939.06 409.388 1931.13 406.745C1923.2 404.102 1916.59 400.035 1911.31 394.545C1906.02 389.258 1903.38 382.548 1903.38 374.415C1903.38 369.942 1905.31 365.672 1909.17 361.605C1913.03 357.538 1917.51 353.878 1922.59 350.625C1927.67 347.372 1931.84 344.932 1935.1 343.305C1931.64 342.085 1927.98 340.255 1924.12 337.815C1920.46 335.375 1917.3 332.325 1914.66 328.665C1912.02 324.802 1910.7 320.43 1910.7 315.55C1912.53 313.517 1915.07 311.178 1918.32 308.535C1921.78 305.688 1925.13 303.045 1928.39 300.605C1931.84 298.165 1934.49 296.437 1936.32 295.42C1929 291.353 1923 285.863 1918.32 278.95C1913.85 271.833 1911.61 264.615 1911.61 257.295C1911.61 249.365 1913.75 242.045 1918.02 235.335C1922.49 228.422 1928.49 222.83 1936.01 218.56C1943.74 214.29 1952.38 212.155 1961.94 212.155C1968.44 212.155 1973.93 213.07 1978.41 214.9C1982.88 216.527 1986.44 217.848 1989.08 218.865C1991.93 219.882 1993.35 220.39 1993.35 220.39C1993.55 220.39 1994.37 220.593 1995.79 221L2027.82 216.425C2029.65 217.035 2030.56 218.052 2030.56 219.475C2030.56 220.695 2029.85 222.83 2028.43 225.88C2027 228.727 2025.48 230.658 2023.85 231.675C2021.41 231.472 2018.67 231.37 2015.62 231.37C2012.57 231.167 2009.92 230.963 2007.69 230.76C2005.45 230.557 2004.33 230.455 2004.33 230.455C2003.52 230.455 2003.11 230.76 2003.11 231.37C2003.92 232.183 2005.45 235.233 2007.69 240.52C2010.13 245.603 2011.35 251.602 2011.35 258.515C2011.35 265.428 2009.11 272.24 2004.64 278.95C2000.37 285.66 1994.37 291.252 1986.64 295.725C1979.12 299.995 1970.58 302.13 1961.02 302.13C1958.38 302.13 1955.33 301.825 1951.87 301.215C1948.41 300.605 1945.87 299.995 1944.25 299.385C1941.6 300.808 1939.06 302.74 1936.62 305.18C1934.38 307.62 1933.27 310.06 1933.27 312.5C1933.27 313.923 1934.79 316.058 1937.84 318.905C1940.89 321.752 1945.36 323.175 1951.26 323.175H1986.34ZM1972.61 344.22C1970.78 344.22 1967.73 344.22 1963.46 344.22C1959.39 344.423 1955.43 344.627 1951.57 344.83C1947.91 345.033 1945.67 345.338 1944.86 345.745C1941.6 347.778 1937.84 350.625 1933.57 354.285C1929.3 357.945 1927.17 361.707 1927.17 365.57C1927.17 375.127 1930.62 383.057 1937.54 389.36C1944.45 395.867 1954.21 399.12 1966.82 399.12C1973.73 399.12 1980.64 397.595 1987.56 394.545C1994.47 391.495 2000.26 387.53 2004.94 382.65C2009.62 377.77 2011.96 372.585 2011.96 367.095C2011.96 364.248 2010.63 360.995 2007.99 357.335C2005.35 353.878 2001.18 350.828 1995.49 348.185C1989.79 345.542 1982.17 344.22 1972.61 344.22ZM1960.72 221.305C1955.02 221.305 1950.24 223.033 1946.38 226.49C1942.52 229.947 1939.57 234.318 1937.54 239.605C1935.5 244.892 1934.49 250.382 1934.49 256.075C1934.49 262.175 1935.6 268.072 1937.84 273.765C1940.08 279.458 1943.33 284.135 1947.6 287.795C1951.87 291.455 1957.06 293.285 1963.16 293.285C1968.65 293.285 1973.22 291.658 1976.88 288.405C1980.74 284.948 1983.59 280.678 1985.42 275.595C1987.45 270.308 1988.47 264.92 1988.47 259.43C1988.47 253.127 1987.45 247.128 1985.42 241.435C1983.39 235.538 1980.34 230.76 1976.27 227.1C1972.2 223.237 1967.02 221.305 1960.72 221.305ZM2068.71 216.425C2074.4 216.425 2080.1 216.222 2085.79 215.815C2091.69 215.408 2095.96 215.103 2098.6 214.9C2099.01 215.713 2099.11 217.34 2098.9 219.78C2098.7 222.22 2098.19 223.44 2097.38 223.44C2096.77 223.44 2095.24 223.542 2092.8 223.745C2090.36 223.948 2088.03 224.457 2085.79 225.27C2083.76 225.88 2082.74 226.998 2082.74 228.625C2082.74 229.032 2082.84 229.438 2083.04 229.845L2114.76 310.365C2114.76 310.365 2115.58 308.23 2117.2 303.96C2118.83 299.487 2120.97 293.895 2123.61 287.185C2126.25 280.272 2129.1 272.85 2132.15 264.92C2135.2 256.99 2138.15 249.568 2140.99 242.655C2141.81 240.825 2142.32 239.097 2142.52 237.47C2142.72 235.64 2142.82 234.217 2142.82 233.2C2142.82 230.15 2141.2 227.812 2137.94 226.185C2134.89 224.355 2130.83 223.44 2125.74 223.44C2124.93 223.44 2124.52 222.22 2124.52 219.78C2124.52 217.34 2124.93 215.713 2125.74 214.9C2127.98 215.103 2131.44 215.408 2136.11 215.815C2140.99 216.222 2146.48 216.425 2152.58 216.425C2158.28 216.425 2163.06 216.222 2166.92 215.815C2170.99 215.408 2174.54 215.103 2177.59 214.9C2178.2 215.713 2178.31 217.34 2177.9 219.78C2177.7 222.22 2177.29 223.44 2176.68 223.44C2175.87 223.44 2174.14 223.745 2171.49 224.355C2169.05 224.965 2166.41 225.982 2163.56 227.405C2160.92 228.828 2158.99 230.963 2157.77 233.81C2153.3 244.383 2149.23 253.94 2145.57 262.48C2142.11 271.02 2138.66 279.357 2135.2 287.49C2131.95 295.42 2128.49 303.757 2124.83 312.5C2121.37 321.04 2117.51 330.597 2113.24 341.17C2109.58 350.32 2106.02 359.47 2102.56 368.62C2099.11 377.77 2094.74 386.31 2089.45 394.24C2086.2 399.323 2082.23 403.39 2077.55 406.44C2073.08 409.49 2068.4 411.015 2063.52 411.015C2060.68 411.015 2057.83 410.202 2054.98 408.575C2052.14 406.948 2050.71 403.492 2050.71 398.205C2050.71 396.375 2051.02 394.647 2051.63 393.02C2052.44 391.393 2053.26 390.173 2054.07 389.36C2058.75 389.36 2062.81 389.055 2066.27 388.445C2069.93 388.038 2073.39 386.615 2076.64 384.175C2080.1 381.735 2083.86 377.872 2087.92 372.585C2089.55 370.348 2091.38 366.993 2093.41 362.52C2095.45 358.25 2097.28 354.082 2098.9 350.015C2100.73 345.948 2101.75 343.407 2101.95 342.39C2096.46 328.157 2091.28 314.94 2086.4 302.74C2081.52 290.337 2076.54 278.238 2071.45 266.445C2066.57 254.448 2061.19 242.147 2055.29 229.54C2053.87 226.49 2051.32 224.762 2047.66 224.355C2044 223.745 2041.26 223.44 2039.43 223.44C2039.02 223.44 2038.82 223.44 2038.82 223.44C2038.62 223.44 2038.51 222.118 2038.51 219.475C2038.51 216.628 2038.62 215.103 2038.82 214.9C2041.67 215.103 2045.83 215.408 2051.32 215.815C2056.81 216.222 2062.61 216.425 2068.71 216.425Z" fill="#01209F"/>
</svg>
